<?xml version="1.0" encoding="utf-8"?>
<!-- Generator: Adobe Illustrator 25.0.0, SVG Export Plug-In . SVG Version: 6.00 Build 0)  -->
<svg version="1.1" id="圖層_1" xmlns="http://www.w3.org/2000/svg" xmlns:xlink="http://www.w3.org/1999/xlink" x="0px" y="0px"
	 viewBox="0 0 1693.9 1504.7" style="enable-background:new 0 0 1693.9 1504.7;" xml:space="preserve">
<style type="text/css">
	.st0{fill:#E59A31;}
	.st1{fill:#363230;}
	.st2{fill:#FFFFFF;}
	.st3{fill:#B37D62;}
	.st4{fill:#764D3B;}
	.st5{fill:#754C3B;}
	.st6{fill:#774F3C;}
</style>
<path class="st0" d="M1551.8,692.4c4.6-1,8.8-3.1,13.2-4.7c5.9-2.2,11.5-5.1,17.1-8c4.2-2.2,8.8-3.6,12.7-6.2
	c3.5-2.4,7.7-3,11.6-4.2c7-2.2,14.3-2.2,21.5-3.3c3.4-0.5,6.7-1.8,9.9-3.1c5.6-2.4,11-1,16.1,1.3c5.8,2.6,11.4,6,15.7,10.8
	c3,3.4,5.1,7.6,8.1,11c4.6,5.2,7.9,11.1,10.6,17.4c2.8,6.5,3.6,13.2,4.9,20c0.9,4.9-0.8,9.6,0.6,14.4c0.9,3.1-0.3,6.4-1.1,9.6
	c-2.2,8.3-2,16.8-2,25.3c0,5.3-1.8,10.4-5.2,14.1c-3.6,3.8-7.9,7.6-13.6,8.1c-2.5,0.2-3.7,1.7-4.7,3.3c-3.1,4.8-6.6,9.3-10,13.8
	c-3.9,5.1-9.1,9.1-13.9,13.6c-4.8,4.4-10.3,7.2-16.1,9.8c-0.2,0.1-0.4,0.2-0.6,0.3c-1.9,0.7-4.9,0-5.7,2.2c-0.7,1.8,0.8,4,1.2,6.1
	c1.2,6.4,0.4,12.6-2.4,18.3c-2.3,4.7-3.2,9.7-3.8,14.7c-0.6,4.9-3.2,8.6-6,12.3c-3.1,4-6.8,7.2-11.6,8.8c-3.8,1.3-7.5,3.8-11.7,3.4
	c-4.4-0.4-7.3,2.3-10.7,4.1c-4.6,2.5-9.5,3.8-14.6,2.6c-1.4-0.3-2.8-0.6-4.2-0.9c-5.1-0.8-10-2.1-13.3-6.8c-1.3-1.9-3.1-3.4-4.5-5.5
	c-2.1-3.1-6.1-2.8-9.5-3.2c-0.6-0.1-1.1,0.2-1.3,0.7c-0.9,2-2.2,4-2.4,6.1c-0.3,3.2-2.4,4.1-4.8,4.6c-4.6,0.9-8.9,1-13.6-1
	c-4.7-2-9.8-3.4-13.2-7.2c-2.6-2.9-5.1-6.1-8.5-7.6c-5-2.3-7.9-6.4-11.1-10.4c-1.1-1.3-0.9-3.3-2.2-4.5c0.6-2.5-0.7-4.7-1.7-6.6
	c-1.4-2.9-2.2-6.7-6.9-6.7c-1.8,0-2.4-1.7-2.4-3.6c0.1-2.1,0.2-4.2,2.2-5.3c2.3-1.3,9.4,0.1,10.8,2.2c2.9,4.5,5.8,9.1,6.9,14.5
	c1,4.9,3.7,8.5,8.1,10.8c3.3,1.7,6.3,3.9,8.7,6.7c4.3,5,9.9,7.5,15.9,9.4c1.3,0.4,2.9,0.4,3.2-1.5c0.5-2.9,2-5.3,3.6-7.7
	c1.7-2.6,4.5-3.7,7.3-3.7c5.6-0.1,10.8,1.8,15.7,4.5c1.4,0.7,2.6,1.8,3.2,3.1c2.5,6,7.6,7.9,13.4,8.9c4,0.7,8.3,0.9,11.1-1.7
	c4.3-4,9.3-4.7,14.6-5.3c7.7-1,14.1-4.2,18.2-11.1c0.7-1.1,1.2-2.3,1.4-3.5c1.1-6,2.2-12,4.9-17.6c0.8-1.8,1.6-3.7,2-5.6
	c1.3-6.3-3.1-15.7-9.3-18c-6-2.3-11.1-6.1-16.9-8.7c-3.2-1.4-5.9-3.8-9-5.4c-4.2-2-8.5-3.5-12.5-6.2c-5.6-3.9-10.2-9.3-16.6-11.5
	c2.6,7.3,3.4,22,0.9,30.9c-1.4,5.1-3.7,10-4.1,15.5c-0.2,2.2-1.5,4.9-3.2,6.4c-4.2,3.7-7.3,7.7-7,13.7c0.1,2.3-2,4.1-4.4,4.3
	c-2.3,0.2-4.6-0.9-4.9-3.2c-0.9-6.4,0-12.4,4.6-17.5c3.1-3.3,6-6.7,6.6-11.6c0.3-2.6,0.8-5.3,1.9-7.6c3-6.4,2.9-13.2,2.4-20
	c-0.2-2.2-0.9-4.9-2.6-6.1c-2.3-1.5-4-3.5-5.9-5.2c-4.8-4.4-10.3-6.9-17-5.8c-4.4,0.7-8.8,1.3-12.8,3.3c-2.6,1.3-4.8,3.7-5.5,6.5
	c-1.5,5.9-7.2,11.7-13.2,12.7c-1,0.2-2,0.5-3,0.8c-4.9,1.7-6.5,7.1-11,9.3c-2.2,1.1-4.2,2.8-6.6,3.6c-2.6,0.9-5.3-1.4-5.4-4.2
	c-0.2-3.2,1.7-5.2,3.9-6.9c2.4-1.8,5.2-3.1,7.2-5.7c3.2-4.1,7.6-6.3,12.6-7.4c3.8-0.8,5.4-3.8,6.7-6.6c1.1-2.3,0-4.7-1.9-6.7
	c-5.2-5.7-12-8.1-19.2-9.9c-2-0.5-8.6,2.7-9.3,4.5c-1.9,4.9-4.4,9.6-5.9,14.6c-0.7,2.3-4.3,4.5-6.5,4c-3.1-0.6-3.3-2.9-3.1-5.4
	c0.3-5.1,2.9-9.6,5-14c1.5-3.2,0.7-5-0.5-7.5c-0.7-1.6-1.5-1.4-2.7-0.5c-6.7,4.5-11.4,3.1-14.5-4.4c-0.6-1.4-1.4-2.3-2.9-1.7
	c-1.8,0.7-3.7,0.9-5.3,2.4c-5.9,5.7-10.7,6.2-17.3,3c-1.2-0.6-2.2-0.8-3.6-0.1c-5.4,2.7-6.7,8.4-2.4,12.9c3.9,4.1,8.1,8.1,13.8,10
	c3,1,4,3.8,3,7c-0.8,2.4-3.5,3.8-6.2,3c-6.6-1.9-11.6-6.2-16.1-11.2c-3.3-3.7-6.9-6.7-12-7.7c-2.3-0.5-4.5-1.3-6.6-2.8
	c-5.6-4-14-0.9-16.4,5.5c-0.5,1.3-1.5,2.6-2.5,3.7c-3.3,3.6-7.7,5.8-11.1,9.5c-5.2,5.5-4.3,14.7,2.4,18.1c1.8,0.9,3.8,0.5,5.6,1.1
	c4.4,1.4,8.8,3,13.3,4.1c7.5,1.8,14.8-0.8,21.8-2.3c6.1-1.4,12.2-3.4,18.5-4.5c4.6-0.8,9.4-0.1,13.6,2.3c2.7,1.6,2.4,4.3,1.5,6.5
	c-1,2.3-3.1,3.4-5.8,2.2c-3.3-1.4-6.8-1.2-10.1-0.5c-7.3,1.5-14.2,4.7-21.7,5.5c-1.2,0.1-1.6,0.6-1.6,1.8c-0.1,3-1.8,4.6-4.9,4.6
	c-0.8,0-1.8,0.1-2.5,0.6c-3.9,2.8-8.3,4.8-11.6,8.9c-3.8,4.8-8,9.2-10.9,14.6c-3.3,6.2-6.5,12.6-2.9,19.5c1.5,3,3,6,3.3,9.1
	c0.4,4.3,2.7,6.8,5.7,9.1c2,1.5,3.7,3.7,6.3,4c5.6,0.8,9.7,4,13.5,7.8c4.2,4.3,9.5,5.3,15.2,4.9c3.9-0.2,6.4-3,9.2-5.3
	c3.1-2.6,6.5-4.4,10.7-3.4c1.9,0.5,3.6,1.9,5.7,2.1c0.4,0.7,0.9,1.4,1.3,2.1c1.3,2.8,3.4,3.4,6.1,2.2c3.9-1.3,7.8-2.6,10.3-6.1
	c3.6-4.7,8.3-7.7,13.9-9.4c2.3-0.7,3.8-2.1,4-4.7c0.4-4.7-0.7-9.2-1.9-13.7c-1-3.5-3.4-6.3-4.4-9.7c-1.2-4.2-1.9-8.6-2.4-13
	c-0.9-7.5,0-14.2,4.8-20.1c0.9-1.1,1.8-2,1-3.6c-0.8-1.6-2-1.4-3.4-1.3c-2,0.1-4-0.7-4.4-2.9c-0.5-2.5-0.7-5.7,2-6.8
	c3.4-1.3,7.4-0.9,10.5,1c7.1,4.3,7,15.5,2.9,19.7c-5.8,6.1-4.4,12.9-2.8,19.3c1.9,7.8,5.8,15.2,7.9,23c-0.6,4.7,0.7,9.6-1.2,14.3
	c-1.6,4.1-3.7,7.2-8.5,8.5c-4.5,1.2-8.7,3.2-11.6,7.7c-1.7,2.7-4.4,5-8.1,5.7c-1.9,0.3-3.4,2.1-5.6,2.7c-5,1.3-9.4-1.1-14-2
	c-1-0.2-1.3-1.6-1.9-2.5c-1.4-2.2-3.7-2.2-5.4-0.3c-5.6,6.5-13.3,8.2-21.6,6.3c-1.5-0.4-3.1-1-4.6-1.2c-4.7-0.4-7.9-3.4-11-6.4
	c-3.1-3-6.7-4.9-10.9-6c-4.2-1.1-7.7-3.4-10.1-7.1c-0.3-0.4-0.6-0.9-1-1.3c-3.2-2.6-4.6-6.1-5.1-10.1c-0.5-4.4-4-7.7-4.9-12.1
	c-1-6.4-1-12.6,1.6-18.8c2.2-5.4,4.6-10.6,8.4-15.1c4.1-4.9,7.7-10.3,13-14.2c0.5-0.4,1.3-0.5,1.1-1.2c-0.1-0.4-0.8-0.6-1.2-0.8
	c-4.9-2.8-10.2-3.9-15.7-4.5c-5-0.6-9.2-3.5-11.4-7.7c-6.5-12.3-2-27.8,10.8-35c2.4-1.3,4.6-3.5,4.9-6.1c0.8-6.4,6.3-7.7,10.5-9.3
	c5.7-2.1,11.9-1.7,17.7,1c2.2,1,4.4,2,6.6,3.2c1.7,0.9,2,0.3,1.9-1.3c-0.1-2.3-0.3-4.9,1.4-6.7c4-4.2,8.2-8.1,14.8-7.3
	c2.4,0.3,4.4,1.5,6.7,1.9c0.8,0.1,1.5,1,2.4,0.2c2.9-2.9,6.9-4.1,10.3-6.1c6-3.5,15.2,1.4,16.2,6.9c6-4.1,13.1-3.7,16.8,3.9
	c0.6,1.3,1.6,1.7,2.5,0.9c1.8-1.4,4-1.3,6-1.7c2-0.3,3.3-2.1,3.2-2.9c-0.3-2.5,1.3-4.1,2.2-5.8c1.6-3.1,3.6-6.2,6.2-8.3
	c8.7-7.1,18.6-12.5,28.1-18.4c8.1-5.1,15.5-11,22.3-17.6c3.1-3.1,6-6.6,6-11.5c0-4.1-0.1-8.1-0.2-12.2c-0.1-1.9-0.2-3.9,0.8-5.6
	c2.4-3.9,0.5-7.4-0.6-11.1c-0.9-2.9-3.6-4.5-4.9-6.9c-1.7-3.1-4-5-6.9-6.8c-2.7-1.6-5.4-3.4-7.6-5.5c-3.3-3.2-5.8-7.2-9.7-9.9
	c-2-1.4-3.9-3-5.9-4.5c-6.2-4.6-13.4-7.9-18.6-14.1c-1.6-1.9-4.2-4-7.2-4.7c-9.4-2.1-19-0.2-28.5-1.7c-4.9-0.7-9.5,0.9-14.3,1.1
	c-3.7,0.1-6.8,1.7-9.9,3.5c-4.8,2.9-9,7-15,7.8c-2.8,0.4-5.8-0.5-8.2,0.4c-4.9,1.9-10.4,2-15,4.8c-4.5,2.8-9.9,3.4-14.3,6.4
	c-1.4,0.9-3,1-4.6,0.5c-1-0.4-2.1-0.6-3.1-0.4c-6.3,1.1-12.7,1.1-19.1,1.3c-4.2,0.2-8.6,0.7-12.5,2.1c-8.6,3.1-17,6.7-24.7,11.9
	c-5,3.4-8.9,7.8-10.3,13.5c-2,8.5-7.1,15.7-9.1,24.1c-0.5,2.1-1.2,3.9-0.4,6.1c1.3,3.3,0.9,6.9,1.5,10.3c0.4,1.9-0.2,3.6-1.5,5.1
	c-2.4,2.8-4.7,5.9-7.5,8.2c-3.4,2.9-4.8,6.6-5.7,10.7c-0.3,1.3-0.8,2.3-1.5,3.4c-2,3.2-5,5.1-7.8,7.2c-0.2,0.3-0.3,0.5-0.5,0.8
	c0,0,0.1-0.1,0.1-0.1c-2.3,0.5-3.5,2.9-3.9,4.3c-0.6,2.3-3.8,4-1.9,6.8c-0.9,4.2-3.4,7.6-5.8,11.1c-2.3,3.4-4.6,7.7-3,11.8
	c1.6,4,1.3,7.9,1.8,11.8c0.5,4.4-0.2,8.9,2.2,13.1c1.3,2.2,3.4,3.6,4.8,5.7c3.4,5.1,4.7,10.7,5.3,16.7c0.3,3.5,1,7.4,3.2,10.2
	c2.7,3.5,5.9,7,9.5,9.3c6,3.8,11.2,8.5,16.9,12.8c1.1,0.8,2.6,1.6,3.1,2.7c1.7,3.6,4.8,5.8,7.8,7.6c8.4,5.2,17.4,6.3,26.6,1.8
	c2.4-1.1,4.8-0.3,7,1c1.9,1.1,1.6,3.2,1.4,4.9c-0.3,2.2-2.8,2.8-3.7,4.6c-2.8,0.8-5.7,1.1-8.5,2.3c-1.4,0.6-3.1,0.4-4.7,0.3
	c-5.5-0.2-11-0.2-16.2-2.3c-4.9-2-9.6-4.5-13-9c-3.7-4.9-8.6-8.9-13.8-12.3c-9.1-5.9-17.9-12.1-22.6-22.5c-1.9-4.1-1.9-8.6-2.6-13
	c-0.5-3.2-1.9-6.1-3.3-8.9c-0.9-1.9-2.8-2-4.7-2c-12.9,0-25.9-0.1-38.8,0.1c-2.7,0-3.3-0.7-3.3-3.3c0.1-17.1,0.1-34.2,0-51.3
	c0-2.7,0.7-3.3,3.4-3.3c12.5,0.1,25,0,37.5,0.1c2.9,0,3.5-1.1,4.2-3.8c1.9-8,4.9-15.4,13-19.3c2.3-1.1,3-3.4,3.5-5.7
	c0.9-4,2.2-8.3,5.4-10.6c2.7-2,4.4-4.7,6.8-6.8c1.3-1.1,1.3-2.3,0.8-4c-1.7-6.3-2.8-12.6,0.6-18.8c1.1-2,1.4-4.4,2.1-6.6
	c0.8-2.8,1.8-5.4,3.8-7.7c0.7-0.9,1.4-2,1.5-3.1c0.4-4.1,2.2-7.7,3.6-11.8c-1,0-1.8,0-2.6,0c-36.7,0-73.3,0-110-0.1
	c-2.9,0-3.5,0.7-3.5,3.5c0.1,25.4,0.1,50.9,0.1,76.3c0,24.4-0.2,48.7-0.1,73.1c0,2.7-1,3-3.3,3c-19.4-0.1-38.9-0.1-58.3,0
	c-3,0-3.8-0.8-3.8-3.7c0.1-12.8,0.2-25.6,0.3-38.4c0.2-54.2,0.1-108.3,0-162.5c0-3.2,0.7-4.1,4-4.1c35.9,0.1,71.8,0,107.7,0.2
	c3.3,0,4-0.9,4-4.1c-0.2-32.2-0.2-64.3-0.1-96.5c0-2.9-0.8-3.5-3.6-3.5c-43.3,0.1-86.6,0-129.8,0.1c-2.8,0-3.8-0.6-3.7-3.6
	c0.2-12.5,0.1-25,0.1-37.5c0-4.9-0.7-4.3,4.2-4.3c43,0,85.9,0,128.9,0c4.1,0,4.1,0,4.1-4.2c0-30.9,0-61.8-0.1-92.6
	c0-2.8,0.7-3.6,3.5-3.5c20,0.1,40,0.1,59.9,0c2.9,0,3.4,0.9,3.4,3.6c-0.1,80.6-0.1,161.1-0.1,241.7c0,4.5,0,4.5,4.3,4.5
	c35.6,0,71.2,0,106.8-0.1c2.8,0,4.1,0.5,3.7,3.6c-0.3,2.2,0.1,4.5-0.1,6.7c-0.1,2.3,0.8,2.5,2.6,1.8c2.8-1,5.3-2.8,7.6-4.5
	c6.9-5.1,14.9-6,23-7.3c4.9-0.8,9.6,0.3,14.5,0.6c5.1,0.3,10.2-0.3,15.2,0.2c9.1,1,17.6,3,24,10.9c4.2,5.2,10.8,8.1,16.3,12
	c4.6,3.3,9.1,6.6,12.6,11.1c2.3,3,5.5,5.2,8.8,7.3c3.7,2.3,7.1,5.1,9.5,9.1c2.4,3.9,5.9,7.2,7.1,11.8c-0.2,3.3,1.3,6.5,0.6,9.8
	c-1.5,7.3-1.9,14.6-1.5,22c0.1,2.9-0.6,6-1.8,8.6c-2.3,5.4-6.2,9.9-10.9,13.4c-6.5,4.8-12,10.9-19.4,14.4c-6.2,3-11.4,7.5-17.4,10.8
	c-5.4,3-10.2,6.9-13.8,12c-3.1,4.3-2.6,5.8,2.3,7.2c1.4,0.4,2.1,0.1,2.6-1c0.6-1.3,1.7-2,2.8-2.5c6.1-2.8,12.4-4.6,19.3-2.6
	c1.7,0.5,3.9,0.6,5.6,0c10.9-3.8,21.8-2.4,32.6-0.4c6.2,1.2,12.8,2.2,17.9,6.7c3.7,3.3,8.1,5.6,11,9.8c3.6,5.2,5.7,11.3,9.5,16.4
	c1,1.4,2.4,2.7,2.6,4.7c0.2,2.1,1.7,2.9,3.4,3.7c5.3,2.7,10.8,5,15.9,8c9.5,5.6,19.3,5,27.9-1.1c4.5-3.2,8.8-6.7,12.5-10.8
	c2.9-3.2,5.9-6.2,8.2-10c3.1-5,6.4-10.2,11.6-13.6c1.7-1.1,3.9-1,5.3-2.6c4.4-0.1,7.4-2.9,9.4-6.1c1.9-3.1,2.6-6.8,2.3-10.8
	c-0.4-5.5,0.2-11,0.4-16.5c0.5-3,1.1-6,1.6-8.9c1.7-1.9,0.6-4.2,0.6-6.3c0-4.9,1-9.9-0.8-14.8c-1.2-4.4-1.9-9.2-3.9-13.2
	c-1.7-3.3-2.8-6.9-5.2-10c-3.1-4-7.3-7.2-9.1-12.1c-0.4-0.2-0.8-0.5-1.2-0.7c-0.2-0.2-0.4-0.3-0.6-0.5c0-0.5,0-0.9-0.7-0.8l0,0
	c0.2-2-1-3-2.5-3.9c-3.2-1.9-6.4-3.7-9.5-5.8c-3.5-2.4-7-1.6-10.6-0.3c-5.1,1.6-10.2,3.3-15.5,3.4c-6.1,0.1-11.8,1.9-17.5,3.6
	c-5.4,1.6-10.9,3.4-15.7,6.4c-2.5,1.6-5.4,2.3-7.9,4c-3.5,2.3-7.6,3.7-11.5,5.3c-3.6,1.6-7.3,3.2-11,4.5c-3.1,1.1-6,2.8-9.3,3.2
	c-3.2,0.3-4.9-1.4-5.3-4.5C1545.6,694.9,1549.1,694,1551.8,692.4z M1563.2,799.2c-2.1-2.4-5.1-3.8-7.2-5.9
	c-4.5-4.5-10.5-5.9-15.4-9.5c-2.2-1.6-5.1-0.4-7.4-1.6c-2.7-1.5-5.4-1.7-8.3-0.8c-0.7,0.2-2.3,0-1.6,1.2c0.8,1.3-0.8,3.6,1.7,3.9
	c2,0.2,3.7,1.1,5.3,2.1c4,2.7,8,3.5,12.9,2.1c4.3-1.2,8.5-0.3,11.8,3.4C1557.2,796.4,1559.8,798.5,1563.2,799.2z M1491.9,785.4
	c1.4,1.9,3.5,3,4.3,5.2c0.4,1,0.9,0.6,1.5,0.3c4.6-2.2,9.6-3.3,14.9-4.7C1505.6,782.1,1498.9,780.6,1491.9,785.4z"/>
<path class="st0" d="M782.4,857.3c7.4-2,14-5.4,20.8-8.4c21.8-9.4,40-24.1,57.7-39.4c28.3-24.5,52.3-52.7,70.8-85.4
	c1.3-2.4,1.1-3.5-1.1-5.1c-18.1-13-36.7-25.4-55.8-37c-2.1-1.3-2.8-1.1-3.7,1.3c-3.7,10.2-7.7,20.3-11.5,30.5
	c-0.8,2.1-1.7,2.7-3.9,2.1c-18.2-4.5-36.5-8.9-54.7-13.2c-2.7-0.6-3.1-1.4-2.1-3.9c14.2-35.9,27.1-72.3,39.2-109
	c10.3-31.2,19.9-62.6,29.1-94.1c1.1-3.6,1-3.6-2.9-3.6c-23.8,0-47.7-0.1-71.5,0.1c-3.2,0-3.5-0.9-3.4-3.8c0.4-8.1,0.4-16.2,0.5-24.3
	c0-1,0.1-1.9,0-2.9c-0.1-2.4,0.9-3.1,3.4-3.1c27.1,0.1,54.3,0,81.4,0.1c2.5,0,3.6-0.5,4.3-3.2c9.4-36.3,18.1-72.8,25.3-109.7
	c0.4-1.8,0.6-2.9,3-2.3c20.5,4.8,41.1,9.6,61.7,14.2c2.1,0.5,2.7,0.9,2.2,3.3c-6.5,32.2-14.9,63.9-24.2,95.5
	c-8.7,29.7-17.3,59.4-26.6,88.8c-11.1,35.1-23.2,69.8-36.2,104.2c-1.1,3-0.9,4,2.3,5c21.5,7.3,42.7,15.5,63.7,24.2
	c2.5,1.1,3.3,0.6,4.3-1.8c15.9-40.6,27-82.4,34.7-125.3c3.3-18.4,5.8-36.9,8.2-55.4c0.4-2.8-0.2-3.9-3.3-3.8
	c-8.1,0.2-16.2,0-24.4,0.1c-2,0-2.2-0.6-1.7-2.3c2.6-9.9,5.2-19.8,7.8-29.7c0.4-1.5,1.1-2,2.6-2c29.8,0.1,59.6,0.1,89.4,0
	c1.7,0,2.2,0.5,2,2.2c-3.2,29.6-7.4,59.1-13.1,88.3c-6.6,33.5-14.9,66.6-26.5,98.8c-6.7,18.7-14.4,36.9-23.2,54.7
	c-1.1,2.2-0.9,3.1,1.3,4.3c26.2,14.6,51.2,31.2,75.2,49.3c2,1.5,2.4,2.4,0.8,4.6c-13.7,18.4-27.3,36.9-40.8,55.5
	c-1.7,2.3-2.4,2.2-4.3,0.1c-19.4-21.6-40.1-42-62.2-60.9c-1.5-1.3-2.3-1.6-3.7,0.3c-29.5,39.7-66.8,70.5-109.2,95.5
	c-17.6,10.4-35.4,20.8-54.2,28.8c-12.4,5.3-25.1,9.5-38.6,11c-5.3,0.6-10.7,0.5-16-0.5c-12.3-2.4-19.9-11.6-20-24.2
	c-0.2-19.3,17.2-36.3,36.2-35.4c6.2,0.3,11.1,2.7,13.8,8.7c2.7,6.1,2.5,11.8-2,17C782.8,856.6,782.6,857,782.4,857.3z M781.8,858
	l-0.2-0.1l0,0.2L781.8,858z"/>
<path class="st1" d="M1259.6,757.3C1259.6,757.3,1259.6,757.4,1259.6,757.3c0.1-0.2,0.3-0.5,0.4-0.7c2.8-2.2,5.9-4.1,7.8-7.2
	c0.7-1.1,1.2-2.1,1.5-3.4c0.8-4.1,2.2-7.8,5.7-10.7c2.8-2.4,5-5.4,7.5-8.2c1.3-1.4,1.8-3.2,1.5-5.1c-0.7-3.4-0.3-7-1.5-10.3
	c-0.8-2.1-0.1-4,0.4-6.1c2-8.4,7.1-15.6,9.1-24.1c1.4-5.7,5.3-10.2,10.3-13.5c7.7-5.2,16.1-8.8,24.7-11.9c3.9-1.4,8.3-1.9,12.5-2.1
	c6.4-0.3,12.8-0.3,19.1-1.3c1.1-0.2,2.1,0,3.1,0.4c1.6,0.5,3.2,0.4,4.6-0.5c4.4-2.9,9.9-3.6,14.3-6.4c4.6-2.9,10.1-2.9,15-4.8
	c2.4-0.9,5.4-0.1,8.2-0.4c6-0.8,10.2-4.9,15-7.8c3.1-1.9,6.2-3.4,9.9-3.5c4.8-0.2,9.4-1.8,14.3-1.1c9.4,1.4,19-0.4,28.5,1.7
	c3,0.7,5.6,2.8,7.2,4.7c5.2,6.2,12.3,9.5,18.6,14.1c1.9,1.4,3.9,3.1,5.9,4.5c3.9,2.7,6.4,6.7,9.7,9.9c2.2,2.2,4.9,3.9,7.6,5.5
	c2.9,1.8,5.2,3.7,6.9,6.8c1.3,2.4,4,3.9,4.9,6.9c1.1,3.7,3.1,7.2,0.6,11.1c-1,1.7-0.9,3.7-0.8,5.6c0.1,4.1,0.2,8.1,0.2,12.2
	c0,4.9-2.8,8.4-6,11.5c-6.8,6.6-14.2,12.6-22.3,17.6c-9.5,6-19.4,11.3-28.1,18.4c-2.6,2.1-4.6,5.3-6.2,8.3c-0.9,1.7-2.5,3.3-2.2,5.8
	c0.1,0.9-1.2,2.6-3.2,2.9c-2,0.3-4.2,0.2-6,1.7c-0.9,0.7-1.8,0.4-2.5-0.9c-3.7-7.6-10.8-8-16.8-3.9c-1-5.5-10.3-10.4-16.2-6.9
	c-3.4,2-7.4,3.2-10.3,6.1c-0.9,0.9-1.6,0-2.4-0.2c-2.3-0.4-4.3-1.6-6.7-1.9c-6.6-0.8-10.8,3.1-14.8,7.3c-1.8,1.8-1.6,4.4-1.4,6.7
	c0.1,1.7-0.2,2.2-1.9,1.3c-2.2-1.1-4.4-2.1-6.6-3.2c-5.8-2.7-12.1-3.1-17.7-1c-4.2,1.5-9.7,2.9-10.5,9.3c-0.3,2.5-2.5,4.7-4.9,6.1
	c-12.8,7.2-17.3,22.7-10.8,35c2.3,4.2,6.4,7.1,11.4,7.7c5.5,0.7,10.8,1.8,15.7,4.5c0.4,0.3,1.2,0.5,1.2,0.8c0.2,0.8-0.6,0.9-1.1,1.2
	c-5.3,3.8-8.9,9.2-13,14.2c-3.8,4.5-6.2,9.7-8.4,15.1c-2.5,6.1-2.5,12.4-1.6,18.8c-2.7,0-5.5-0.1-8.2-0.1c0.9-1.8,3.4-2.4,3.7-4.6
	c0.2-1.7,0.6-3.8-1.4-4.9c-2.2-1.3-4.6-2.1-7-1c-9.3,4.4-18.3,3.3-26.6-1.8c-2.9-1.8-6.1-4.1-7.8-7.6c-0.5-1.1-2-1.9-3.1-2.7
	c-5.6-4.2-10.9-8.9-16.9-12.8c-3.7-2.4-6.8-5.8-9.5-9.3c-2.2-2.8-2.9-6.6-3.2-10.2c-0.5-6-1.9-11.6-5.3-16.7
	c-1.4-2.1-3.5-3.4-4.8-5.7c-2.3-4.2-1.6-8.7-2.2-13.1c-0.5-4-0.2-7.9-1.8-11.8c-1.7-4.1,0.7-8.4,3-11.8c2.4-3.5,4.8-6.9,5.8-11.1
	C1257,765.3,1257.9,761.1,1259.6,757.3z"/>
<path class="st0" d="M987.7,266.1c0-28.2,0.1-56.4-0.1-84.6c0-2.9,0.8-3.5,3.5-3.4c20.1,0.1,40.2,0.1,60.3,0c2.4,0,3,0.5,3,3
	c-0.1,19.6,0,39.1-0.1,58.7c0,2.6,0.8,3.1,3.2,3.1c39.6-0.1,79.3-0.1,118.9,0c3,0,3.4-1.1,3.4-3.7c-0.1-19,0.1-38,0-57
	c0-2.5,0.4-3.5,3.2-3.4c20.1,0.1,40.2,0.1,60.3,0c2.7,0,3.3,0.8,3.3,3.4c-0.1,19.1,0,38.2,0,57.4c0,2.6,0.6,3.4,3.3,3.4
	c19.7-0.1,39.3,0.1,59,0.1c24.8,0.1,49.6,0.2,74.4,0.3c17.3,0.1,34.6,0.2,51.9,0.2c2.2,0,2.9,0.5,2.9,2.8c-0.1,14.2-0.1,28.4,0,42.6
	c0,2.3-0.8,2.8-2.9,2.8c-33.8-0.3-67.5-0.4-101.3-0.8c-25.5-0.4-51.1-0.4-76.6-0.6c-2.5,0-4.9,0-7.4-0.3c-2.6-0.3-3.5,0.5-3.4,3.3
	c0.1,17.9,0,35.9,0.1,53.8c0,3-0.9,3.6-3.7,3.6c-20-0.1-40-0.1-59.9,0c-2.6,0-3.2-0.7-3.2-3.2c0.1-18.1,0-36.1,0.1-54.2
	c0-2.6-0.7-3.4-3.4-3.4c-39.7,0.1-79.5,0.1-119.2,0c-2.7,0-3.1,1-3.1,3.3c0.1,19.3,0,38.7,0.1,58c0,2.7-0.7,3.3-3.3,3.3
	c-20-0.1-40-0.1-59.9,0c-2.7,0-3.6-0.5-3.5-3.4C987.8,322.7,987.7,294.4,987.7,266.1z"/>
<path class="st1" d="M1418.9,921.3c-2.1-0.1-3.7-1.6-5.7-2.1c-4.2-1-7.6,0.8-10.7,3.4c-2.8,2.3-5.3,5-9.2,5.3
	c-5.7,0.4-11-0.6-15.2-4.9c-3.8-3.9-7.9-7-13.5-7.8c-2.6-0.4-4.3-2.5-6.3-4c-3-2.3-5.3-4.9-5.7-9.1c-0.3-3.1-1.8-6.1-3.3-9.1
	c-3.6-7-0.4-13.3,2.9-19.5c2.9-5.4,7.1-9.9,10.9-14.6c3.3-4.1,7.7-6,11.6-8.9c0.6-0.5,1.6-0.6,2.5-0.6c3.1,0,4.8-1.6,4.9-4.6
	c0.1-1.2,0.4-1.7,1.6-1.8c7.5-0.8,14.4-4,21.7-5.5c3.3-0.7,6.8-0.9,10.1,0.5c2.8,1.2,4.8,0.1,5.8-2.2c0.9-2.2,1.2-5-1.5-6.5
	c-4.2-2.4-8.9-3.1-13.6-2.3c-6.2,1.1-12.3,3.2-18.5,4.5c-7,1.6-14.3,4.1-21.8,2.3c-4.5-1.1-8.9-2.7-13.3-4.1
	c-1.8-0.6-3.7-0.1-5.6-1.1c-6.8-3.5-7.6-12.6-2.4-18.1c3.4-3.6,7.8-5.8,11.1-9.5c1-1.1,1.9-2.3,2.5-3.7c2.4-6.4,10.7-9.5,16.4-5.5
	c2.1,1.5,4.3,2.3,6.6,2.8c5,1.1,8.7,4.1,12,7.7c4.5,5,9.5,9.3,16.1,11.2c2.7,0.8,5.4-0.6,6.2-3c1.1-3.3,0-6.1-3-7
	c-5.6-1.9-9.9-5.8-13.8-10c-4.3-4.5-3-10.2,2.4-12.9c1.3-0.7,2.3-0.5,3.6,0.1c6.6,3.2,11.4,2.7,17.3-3c1.6-1.5,3.5-1.7,5.3-2.4
	c1.5-0.6,2.3,0.3,2.9,1.7c3.1,7.5,7.9,8.9,14.5,4.4c1.2-0.8,2-1,2.7,0.5c1.2,2.5,2,4.3,0.5,7.5c-2,4.4-4.6,8.9-5,14
	c-0.2,2.5,0,4.8,3.1,5.4c2.3,0.4,5.9-1.7,6.5-4c1.5-5.1,4-9.7,5.9-14.6c0.7-1.8,7.3-5,9.3-4.5c7.1,1.8,14,4.2,19.2,9.9
	c1.8,2,3,4.4,1.9,6.7c-1.4,2.8-3,5.8-6.7,6.6c-5,1.1-9.4,3.3-12.6,7.4c-2,2.5-4.7,3.8-7.2,5.7c-2.2,1.7-4.1,3.7-3.9,6.9
	c0.2,2.8,2.8,5.2,5.4,4.2c2.4-0.8,4.4-2.5,6.6-3.6c4.5-2.3,6.1-7.7,11-9.3c1-0.3,2-0.7,3-0.8c6.1-1,11.7-6.8,13.2-12.7
	c0.7-2.9,2.9-5.2,5.5-6.5c4-2.1,8.4-2.7,12.8-3.3c6.7-1.1,12.2,1.4,17,5.8c1.9,1.8,3.6,3.7,5.9,5.2c1.7,1.1,2.5,3.9,2.6,6.1
	c0.5,6.8,0.6,13.5-2.4,20c-1.1,2.3-1.7,5-1.9,7.6c-0.5,4.9-3.5,8.3-6.6,11.6c-4.7,5-5.5,11.1-4.6,17.5c0.3,2.3,2.6,3.4,4.9,3.2
	c2.4-0.3,4.5-2.1,4.4-4.3c-0.3-6.1,2.7-10,7-13.7c1.7-1.5,3.1-4.2,3.2-6.4c0.4-5.5,2.7-10.4,4.1-15.5c2.4-8.9,1.7-23.6-0.9-30.9
	c6.4,2.2,11,7.6,16.6,11.5c4,2.8,8.3,4.2,12.5,6.2c3.1,1.5,5.8,4,9,5.4c5.8,2.5,10.9,6.4,16.9,8.7c6.1,2.3,10.6,11.7,9.3,18
	c-0.4,1.9-1.2,3.9-2,5.6c-2.7,5.6-3.9,11.6-4.9,17.6c-0.2,1.2-0.8,2.4-1.4,3.5c-4.1,6.9-10.5,10.1-18.2,11.1
	c-5.3,0.7-10.3,1.3-14.6,5.3c-2.8,2.6-7.1,2.4-11.1,1.7c-5.8-1-10.9-2.9-13.4-8.9c-0.6-1.3-1.8-2.3-3.2-3.1
	c-4.9-2.6-10.1-4.6-15.7-4.5c-2.8,0.1-5.6,1.2-7.3,3.7c-1.6,2.4-3.1,4.8-3.6,7.7c-0.3,1.8-1.9,1.9-3.2,1.5c-6-1.9-11.6-4.4-15.9-9.4
	c-2.4-2.8-5.4-5-8.7-6.7c-4.4-2.2-7.1-5.9-8.1-10.8c-1.1-5.4-4-10-6.9-14.5c-1.4-2.2-8.5-3.5-10.8-2.2c-2,1.1-2.2,3.2-2.2,5.3
	c0,1.9,0.6,3.6,2.4,3.6c4.7,0,5.5,3.8,6.9,6.7c1,2,2.2,4.2,1.7,6.6c-3.4,3.1-3.3,7.4-3.7,11.5c-0.5,4.8-1.4,9.5-4.3,13.5
	c-2.1-7.9-6-15.2-7.9-23c-1.6-6.4-3-13.2,2.8-19.3c4.1-4.3,4.2-15.4-2.9-19.7c-3.2-1.9-7.1-2.3-10.5-1c-2.8,1.1-2.5,4.3-2,6.8
	c0.4,2.2,2.5,3,4.4,2.9c1.5,0,2.6-0.2,3.4,1.3c0.9,1.6-0.1,2.5-1,3.6c-4.8,5.9-5.7,12.6-4.8,20.1c0.5,4.4,1.2,8.8,2.4,13
	c1,3.4,3.4,6.2,4.4,9.7c1.2,4.5,2.3,9,1.9,13.7c-0.2,2.6-1.7,4-4,4.7c-5.6,1.7-10.3,4.6-13.9,9.4c-2.6,3.5-6.5,4.8-10.3,6.1
	C1424.4,923.3,1421.9,921.8,1418.9,921.3z"/>
<path class="st1" d="M1683.1,741.7c-0.5,3-1.1,6-1.6,8.9c-3,5.8-5.3,11.8-6.6,18.1c-1.1,5.4-3.1,10.4-5.5,15.2
	c-1.4,1.6-3.6,1.5-5.3,2.6c-5.2,3.5-8.5,8.6-11.6,13.6c-2.3,3.8-5.3,6.8-8.2,10c-3.7,4.1-8,7.6-12.5,10.8c-8.6,6-18.4,6.7-27.9,1.1
	c-5-3-10.6-5.3-15.9-8c-1.7-0.9-3.2-1.6-3.4-3.7c-0.2-1.9-1.6-3.3-2.6-4.7c-3.8-5.1-6-11.1-9.5-16.4c-2.9-4.2-7.3-6.6-11-9.8
	c-5.1-4.6-11.7-5.6-17.9-6.7c-10.8-2-21.8-3.5-32.6,0.4c-1.7,0.6-3.8,0.4-5.6,0c-6.9-1.9-13.1-0.2-19.3,2.6
	c-1.1,0.5-2.3,1.2-2.8,2.5c-0.5,1.1-1.2,1.4-2.6,1c-4.9-1.4-5.5-2.9-2.3-7.2c3.7-5.1,8.5-9,13.8-12c6-3.3,11.2-7.9,17.4-10.8
	c7.4-3.5,12.9-9.7,19.4-14.4c4.6-3.4,8.6-7.9,10.9-13.4c1.1-2.7,1.9-5.8,1.8-8.6c-0.4-7.4,0-14.7,1.5-22c0.7-3.3-0.8-6.5-0.6-9.8
	c3.1,3.8,5.8,8,9.3,11.5c-2.7,1.7-6.2,2.5-5.7,7c0.4,3.1,2.1,4.8,5.3,4.5c3.3-0.3,6.2-2.1,9.3-3.2c3.7-1.3,7.4-2.9,11-4.5
	c3.9-1.7,8-3,11.5-5.3c2.5-1.7,5.4-2.4,7.9-4c4.8-3,10.3-4.8,15.7-6.4c5.7-1.7,11.3-3.5,17.5-3.6c5.3-0.1,10.4-1.8,15.5-3.4
	c8.3,1.7,15.9,4.8,22.6,10l0,0c0.2,0.3,0.5,0.6,0.7,0.8c0.2,0.2,0.4,0.3,0.6,0.5c0.4,0.2,0.8,0.5,1.2,0.7c1.8,4.9,6,8.1,9.1,12.1
	c2.4,3.1,3.5,6.7,5.2,10c2.1,4,2.7,8.8,3.9,13.2c0.1,1.2,0.2,2.3,0.3,3.5C1683.7,730,1684,735.8,1683.1,741.7z"/>
<path class="st0" d="M854.4,242.3c22.2,0,44.5-0.2,66.7,0.1c12.9,0.2,25.9,0.1,38.8,0.1c2.5,0,3,0.8,3,3.1
	c-0.1,13.8-0.1,27.6,0,41.4c0,2.4-0.7,3-3.1,3c-43.1-0.2-86.1-0.1-129.2-0.5c-13.9-0.1-27.8-0.1-41.7-0.2c-5.7-0.1-5.7,0-5.7-5.8
	c0-12.4,0-24.8,0-37.2c0-4.9-0.7-4.3,4.2-4.3c22.3,0,44.7,0,67,0C854.4,242,854.4,242.2,854.4,242.3z"/>
<path class="st0" d="M1376.3,513.7c-18.8,0-37.6-0.1-56.4,0.1c-2.7,0-3.4-0.7-3.3-3.4c0.1-13,0.1-26.1,0-39.1c0-2.3,0.4-3.1,3-3.1
	c37.8,0.1,75.6,0.1,113.4,0c2.4,0,3,0.6,3,3c-0.1,13.1-0.1,26.3,0,39.4c0,2.7-1,3.1-3.3,3.1C1413.9,513.6,1395.1,513.7,1376.3,513.7
	z"/>
<g>
	<path class="st0" d="M211.7,0c2.9,2.2,6.5,3.1,9.7,4.5c17.5,7.5,35.1,15,52.7,22.4c3.4,1.4,3.3,1.4,1,4.3
		c-13.8,16.9-29.2,32.4-45.4,46.9c-1.2,1.1-2.3,2.1-4.2,3.8c2,0,3.2,0,4.4,0c139.8,0,279.6,0,419.3,0c4.3,0,4.3,0,4.3,4.2
		c0,9.1-0.1,18.2,0,27.2c0,2.1-0.5,2.9-2.7,2.7c-1.4-0.2-2.8,0-4.2,0c-139.1,0-278.3,0-417.4,0c-4.6,0-4-0.6-4,4.1
		c0,21.9,0,43.8-0.1,65.7c0,2.7,0.8,3.3,3.4,3.3c16.7-0.1,33.3-0.1,50,0c2.6,0,3.2-0.7,3.2-3.2c-0.1-15.3,0-30.6-0.1-45.8
		c0-2.4,0.6-3,3-3c17.4,0.1,34.8,0.1,52.3,0c2.5,0,3.2,0.6,3.2,3.1c-0.1,15.3,0,30.6-0.1,45.8c0,2.3,0.5,3.1,3,3.1
		c16.9-0.1,33.8-0.1,50.7,0c2.7,0,3.1-1,3-3.3c-0.1-15.2,0-30.3-0.1-45.5c0-2.5,0.5-3.2,3.1-3.2c17.4,0.1,34.8,0.1,52.3,0
		c2.5,0,3.2,0.7,3.2,3.2c-0.1,15.3,0,30.6-0.1,45.8c0,2.4,0.6,3,3,3c16.8-0.1,33.6-0.1,50.3,0c2.4,0,3.1-0.6,3-3
		c-0.1-15.3,0-30.6-0.1-45.8c0-2.5,0.6-3.2,3.2-3.2c19,0.1,38,0.1,57.1,0c2.4,0,3,0.6,3,3c-0.1,15.3,0,30.6-0.1,45.8
		c0,2.5,0.6,3.2,3.2,3.2c39.1-0.1,78.2,0,117.3-0.1c2.7,0,3.7,0.4,3.6,3.4c-0.2,9.1-0.2,18.2,0,27.2c0,2.7-0.7,3.3-3.4,3.3
		c-38.9-0.1-77.8,0-116.7-0.1c-3.2,0-4,0.7-4,4c0.1,26.3,0.1,52.6,0,78.9c0,2.8,0.6,3.6,3.5,3.6c29.8-0.1,59.6,0,89.4-0.1
		c2.8,0,3.6,0.6,3.6,3.5c-0.2,8.9-0.2,17.7,0,26.6c0,2.5-0.7,3.2-3.2,3.2c-25.4-0.1-50.9-0.1-76.3-0.1c-124.5,0-249,0-373.5,0
		c-1.2,0-2.4,0-3.6,0c0.3,1,1.2,1,2,1.2c9.5,3.3,18.9,6.7,28.4,9.9c2.1,0.7,2.7,1.3,1.6,3.5c-17.7,36.1-38.6,70.1-65,100.6
		c-3.9,4.5-7.7,9.2-11.7,13.6c-1.7,1.8-1.2,2.5,0.5,3.8c19.9,15.3,38,32.4,54.7,51.1c1.8,2,1.5,2.9-0.4,4.4
		c-13.3,11.1-26.5,22.2-39.7,33.5c-2.2,1.9-2.9,1.7-4.2-0.9c-10.5-21.5-22-42.4-34.7-62.7c-2-3.2-2-3.2-4.8-0.7
		c-25.4,23.2-51.9,45.1-81.8,62.5c-2.6,1.5-5.5,4.6-8,3.9c-2.2-0.7-3.5-4.5-5.2-7c-3-4.5-6-9.1-9.1-13.6c-1-1.5-0.9-2.2,0.5-3.3
		c52-40.8,89.8-92.9,120.1-151c7.7-14.9,14.8-30,21.4-45.4c1.5-3.5,1.5-3.5-2.2-3.5c-36.3,0-72.7,0-109,0.1c-2.8,0-3.8-0.6-3.7-3.6
		c0.2-8.5,0.2-17.1,0-25.6c-0.1-3.1,0.5-4.1,3.9-4.1c30.1,0.2,60.3,0,90.4,0.2c3,0,3.9-0.6,3.9-3.8c-0.1-26.4-0.1-52.8,0-79.2
		c0-2.9-0.9-3.4-3.6-3.4c-38.3,0.1-76.5,0-114.8,0.1c-3,0-3.7-0.8-3.6-3.7c0.2-8.8,0.2-17.5,0-26.3c-0.1-3.1,0.5-4.1,3.9-4.1
		c38,0.1,76.1,0,114.1,0.2c3.3,0,4-0.9,3.9-4c-0.2-17-0.1-34-0.1-51c0-1,0-2.1,0-3.7c-3.5,2.3-6.5,4.4-9.5,6.5
		c-23.3,15.7-47.3,30.2-73,41.8c-2.5,1.1-3.7,1-5.1-1.6c-3.4-6.4-7.2-12.6-10.9-18.8c-1-1.6-0.9-2.4,0.8-3.5
		c26.3-18.2,50.2-39.1,72.4-62.1c27.6-28.5,51.8-59.6,73.5-92.8C210.8,0,211.2,0,211.7,0z M281.7,266.2c0-13.5,0-26.9,0-40.4
		c0-2.2-0.5-2.9-2.8-2.9c-16.9,0.1-33.8,0.1-50.6,0c-2.3,0-3.1,0.5-3.1,3c0.1,26.7,0.1,53.4,0,80.1c0,2.5,0.6,3.3,3.2,3.3
		c16.8-0.1,33.5-0.1,50.3,0c2.4,0,3.1-0.6,3-3C281.6,293,281.7,279.6,281.7,266.2z M340,266.1c0,13.5,0,26.9,0,40.4
		c0,2.3,0.7,2.9,2.9,2.9c17-0.1,34-0.1,50.9,0c2.3,0,2.8-0.8,2.8-3c-0.1-26.8-0.1-53.6,0-80.4c0-2.5-0.7-3-3.1-3
		c-16.9,0.1-33.7,0.1-50.6,0c-2.5,0-3,0.7-3,3.1C340.1,239.4,340,252.7,340,266.1z M455.1,266.1c0,13.4,0,26.7,0,40.1
		c0,2.2,0.3,3.2,2.9,3.2c16.9-0.1,33.8-0.1,50.6,0c2.3,0,2.9-0.8,2.8-2.9c-0.1-26.8-0.1-53.6,0-80.4c0-2.5-0.7-3-3.1-3
		c-16.8,0.1-33.5,0.1-50.3,0c-2.4,0-3,0.7-3,3.1C455.1,239.4,455.1,252.7,455.1,266.1z"/>
	<path class="st0" d="M47.1,680.5c7-1.7,13.4-4.4,19.8-7.2c37.1-16.2,72.3-35.8,104.1-61c56.7-44.8,96.9-101.4,120.1-169.9
		c0.6-1.7,1.1-3.4,1.9-5.1c1-2.2,0.4-2.9-2.1-2.8c-15,0.1-29.9,0.1-44.9,0c-1,0-1.9,0-2.9,0c-1.9,0-2.5-0.5-1.5-2.4
		c5.2-9.6,10.3-19.2,15.3-28.9c0.9-1.7,2.1-1.8,3.6-1.8c11.2,0,22.4,0,33.7,0.1c2,0,3.4-0.6,4.8-1.9c3-2.8,6.3-5.4,9.3-8.3
		c1.3-1.3,2.4-1.2,4-0.6c18.3,7.1,36.6,14.1,54.9,21.1c1.8,0.7,2.7,1.4,1.6,3.4c-0.5,0.9-0.4,2.1-0.7,3.1c-1.5,5.2-1.5,5.2,4,5.2
		c40.1,0,80.1,0,120.2,0.1c3.1,0,3.9-0.9,3.8-3.9c-0.1-20.1,0-40.2-0.1-60.3c0-3.1,0.5-4.1,3.9-4.1c19.4,0.2,38.9,0.2,58.3,0
		c3,0,3.9,0.6,3.9,3.8c-0.1,57.6-0.1,115.2-0.1,172.8c0,55.1,0,110.3,0.1,165.4c0,2.8-0.6,3.8-3.6,3.7c-19.7-0.1-39.3-0.1-59,0
		c-2.7,0-3.6-0.6-3.6-3.5c0.1-33.9,0-67.7,0.1-101.6c0-2.9-0.7-3.8-3.7-3.8c-26.5,0.1-53,0.1-79.5,0c-2.6,0-3.7,0.8-4.5,3.2
		c-4.8,14.5-9.7,28.9-14.5,43.4c-0.8,2.4-1.5,3.3-4.4,2.6c-17.9-4.5-35.8-8.8-53.8-13.1c-2.3-0.5-2.8-1.2-1.9-3.6
		c19.1-47.9,32.8-97.4,43-147.8c1.2-5.8,1.2-5.7,6.9-4.4c17.4,4.1,34.8,8.3,52.3,12.3c2.9,0.7,3.3,1.7,2.7,4.5
		c-5,22.2-10.6,44.2-16.8,66c-0.6,2.2-0.8,3.3,2.3,3.2c22.9-0.1,45.7-0.1,68.6,0c2.7,0,3.3-0.8,3.3-3.4c-0.1-31.7-0.1-63.5,0-95.2
		c0-2.4-0.5-3.3-3.1-3.3c-45,0.1-90,0.1-135,0c-2.7,0-3.4,1.4-4.1,3.3c-12.1,30.2-27,58.9-45.8,85.6c-19.6,27.8-43.9,51.1-70.2,72.5
		c-34,27.7-72.3,47.9-112.5,64.8c-19.4,8.1-38.9,15.9-58.6,23.2c-10.4,3.9-21.2,6.6-32.4,7.3c-6.4,0.4-12.6-0.1-18.7-2.1
		c-10.5-3.4-16.3-12.6-15.9-25c0.6-18.9,19.6-35.3,38.3-33c6.4,0.8,10.8,4.1,12.9,10.4c2.1,6,1.1,11.3-3.4,15.9
		C47.6,679.8,47.4,680.2,47.1,680.5z"/>
	<path class="st0" d="M642.9,558.3c17.1,0,34.2,0.1,51.3-0.1c2.4,0,3,0.6,3,3c-0.1,9.4-0.1,18.8,0,28.2c0,1.9-0.4,2.6-2.5,2.6
		c-34.5-0.1-69-0.1-103.5,0c-2,0-2.5-0.6-2.5-2.6c0.1-9.5,0.1-19,0-28.5c0-2.4,0.9-2.7,3-2.7C608.7,558.4,625.8,558.3,642.9,558.3z"
		/>
	<path class="st0" d="M636.1,423.5c14.6,0,29.3,0.1,43.9-0.1c2.5,0,3.3,0.7,3.2,3.2c-0.1,9.1-0.1,18.2,0,27.2c0,2.1-0.6,2.7-2.7,2.7
		c-29.8-0.1-59.6-0.1-89.4,0c-2,0-2.5-0.6-2.5-2.5c0.1-9.3,0.1-18.6,0-27.9c0-2.4,0.9-2.8,3-2.7
		C606.5,423.6,621.3,423.5,636.1,423.5z"/>
</g>
<path class="st1" d="M1563.2,799.2c-3.4-0.7-6-2.8-8.1-5.2c-3.3-3.7-7.5-4.7-11.8-3.4c-4.9,1.4-8.8,0.6-12.9-2.1
	c-1.5-1-3.3-1.8-5.3-2.1c-2.4-0.3-0.9-2.6-1.7-3.9c-0.7-1.2,0.9-0.9,1.6-1.2c2.9-0.9,5.6-0.6,8.3,0.8c2.3,1.2,5.2,0,7.4,1.6
	c4.9,3.5,11,5,15.4,9.5C1558.1,795.4,1561.1,796.8,1563.2,799.2z"/>
<path class="st1" d="M1491.9,785.4c7-4.7,13.7-3.2,20.7,0.8c-5.2,1.4-10.2,2.5-14.9,4.7c-0.6,0.3-1.1,0.6-1.5-0.3
	C1495.4,788.3,1493.3,787.3,1491.9,785.4z"/>
<path class="st2" d="M1664.7,685.4c-0.4-0.2-0.8-0.5-1.2-0.7C1663.9,684.9,1664.3,685.1,1664.7,685.4z"/>
<path class="st2" d="M1663,684.1c-0.2-0.3-0.5-0.6-0.7-0.8C1662.9,683.2,1663,683.6,1663,684.1z"/>
<path class="st2" d="M1260.1,756.6c-0.2,0.3-0.3,0.5-0.5,0.8C1259.7,757.1,1259.9,756.9,1260.1,756.6z"/>
<polygon class="st2" points="781.8,858 781.6,858.1 781.6,857.9 "/>
<g>
	<path class="st3" d="M1350.3,1147c-4.7,6-9.2,12-14,17.8c-19.1,22.6-42.1,40.6-67,56.2c-36.3,22.8-75.7,38.2-116.8,49.6
		c-6.6,1.8-13.3,3.4-19.9,5.2c-1.9,0.5-2.7,0.2-3.2-1.8c-1.1-4.5-2.2-9-3.7-13.4c-0.9-2.7,0.5-3.2,2.5-3.8
		c20.1-6.5,39.7-14.2,58.6-23.6c43.1-21.5,81-49.7,112.5-86.3c3.3-3.8,6.3-7.9,9.5-12c-1.4-1-2.7-0.8-3.8-0.8
		c-48.7-4.1-97.4-8.1-146.1-12c-3.1-0.3-4.2-1-3.7-4.3c0.8-5.6,1.1-11.3,1.4-16.9c0.1-2.4,1-2.9,3.3-2.7c14.8,1.3,29.7,2.5,44.5,3.7
		c48.2,4,96.5,8,144.7,12.1c3.3,0.3,4.3-0.4,4.6-3.8c0.8-12.9,2.1-25.9,3.1-38.8c0.3-4.1,0.3-4.1-3.9-4.2c-20-0.2-39.9-0.9-59.9-1.8
		c-29.4-1.3-58.7-3.1-88-6c-1.1-0.1-2.2-0.3-3.3-0.5c-6.1-1.1-6.1-1.1-6.7-7.4c-0.4-3.4-0.5-6.8-0.9-10.3c-0.2-1.6,0.4-2.2,2-2.1
		c5.8,0.2,11.5,0.2,17.3,0.4c26.2,0.7,52.3,0.9,78.5,0.7c24.5-0.3,49-1,73.4-2.8c46.1-3.4,91.6-10.3,135.9-23.7
		c5.4-1.7,10.8-1.2,15.5,3.5c11.4,11.5,23.1,22.7,34.7,34c0.5,0.5,1.1,1,2.2,1.9c-9.4,2.3-18,3.8-26.6,5.2
		c-30.7,4.9-61.6,7.4-92.7,8.4c-9.3,0.3-18.6,0.7-27.9,0.8c-2.1,0-2.6,0.8-2.7,2.6c-1.2,15.1-2.4,30.3-3.8,45.4
		c-0.2,2,0.3,2.9,2.4,2.9c0.9,0,1.8,0.1,2.7,0.2c62.9,5.2,125.7,10.4,188.6,15.5c3.4,0.3,4.3,1.2,3.8,4.5
		c-0.7,5.2-1.2,10.4-1.3,15.6c0,3.6-1.4,4.1-4.6,3.7c-10.8-1.1-21.7-1.9-32.5-2.8c-45.5-3.8-91-7.5-136.4-11.3
		c-1.2-0.1-2.4-0.2-4.1-0.3c1.9,3.2,4.3,5.4,6.4,7.7c22.7,24.6,47.9,46.2,76.9,63c32.1,18.7,65.8,33.9,101.3,44.9
		c3.1,1,2.9,1.9,1.5,4.2c-8.1,13.6-16.1,27.3-23.9,41c-1.3,2.2-2.4,2.5-4.7,1.6c-35.5-13.4-67.2-33-96.1-57.2
		c-15.6-13.1-30.2-27.2-43.4-42.7c-14.1-16.5-26.3-34.3-37.1-53.1c-0.5-1-1.1-1.9-2.2-3.8c-0.2,2-0.3,3.1-0.3,4.2
		c-3,36.8-6.1,73.6-9.1,110.4c-0.2,3.1-1.1,3.8-4.2,3.5c-13.2-1.3-26.3-2.3-39.5-3.3c-2.8-0.2-3.4-1-3.2-3.8
		c3.1-36.7,6.1-73.4,9.2-110.1C1350.1,1149,1350.2,1148,1350.3,1147z"/>
	<path class="st3" d="M1362.9,1277.9c48.6,4,97.2,8.1,145.8,12c3.1,0.2,3.7,1.2,3.5,4.1c-5.8,69-11.5,137.9-17.1,206.9
		c-0.3,3.2-1.1,4-4.3,3.7c-12.7-1.2-25.4-2.3-38.2-3.2c-2.5-0.2-3.1-1-2.9-3.4c0.9-9.6,1.6-19.2,2.5-28.8c0.2-2.3-0.1-3.3-2.7-3.5
		c-67.3-5.5-134.6-11.1-201.9-16.7c-2.4-0.2-3.3,0.3-3.4,2.9c-0.7,9.8-1.7,19.7-2.3,29.5c-0.2,2.5-0.9,3.1-3.4,2.9
		c-13.2-1.2-26.3-2.3-39.5-3.3c-2.8-0.2-3.1-1.3-2.9-3.7c4.2-50.4,8.4-100.8,12.6-151.2c1.6-19,3.2-38,4.6-57c0.2-3.1,1.2-3.5,4-3.3
		C1265.8,1269.9,1314.3,1273.9,1362.9,1277.9z M1356.9,1355.7c33.5,2.8,67.1,5.5,100.6,8.4c2.4,0.2,3.5-0.1,3.7-2.9
		c1.2-16.1,2.5-32.3,4-48.4c0.2-2.4-0.4-3-2.7-3.2c-67.4-5.5-134.8-11.1-202.2-16.7c-2.4-0.2-3,0.5-3.2,2.8c-1.2,16-2.5,32.1-4,48.1
		c-0.3,2.8,0.5,3.5,3.2,3.7C1289.8,1350.1,1323.3,1352.9,1356.9,1355.7z M1354.8,1379.6c-33.5-2.8-67-5.5-100.5-8.4
		c-2.7-0.2-3.6,0.4-3.8,3.2c-1.2,15.8-2.5,31.6-3.9,47.4c-0.2,2.6,0.5,3.4,3.1,3.6c67.2,5.5,134.3,11.1,201.4,16.7
		c2.6,0.2,3.4-0.4,3.6-3c1.2-15.8,2.5-31.6,3.9-47.4c0.3-2.7-0.4-3.5-3.2-3.8C1421.9,1385.2,1388.4,1382.4,1354.8,1379.6z"/>
</g>
<g>
	<path class="st4" d="M1.5,1314.8c1.6-0.2,2.5-1.4,3.6-2.2c27.1-20.4,53.1-42.2,76.9-66.4c35.7-36.2,64.8-77,86.6-122.9
		c4-8.5,7.8-17.2,11.2-25.9c0.3-0.9,0.9-1.7,0.7-2.8c-1.1,0-2.1,0.1-3.1,0.1c-53.9,1.8-107.9,3.5-161.8,5.4
		c-2.3,0.1-3.1-0.4-3.1-2.8c0-5.6-0.2-11.2-0.6-16.7c-0.2-2.5,0.7-3.2,2.9-3c0.2,0,0.3,0,0.5,0c113.7-3.7,227.5-7.5,341.2-11.2
		c4-0.1,3.4-0.5,3.6,3.3c0.2,5.5,0.3,11,0.6,16.5c0.1,2.2-0.5,2.7-2.6,2.7c-42.5,1.3-85,2.8-127.6,4.1c-2.2,0.1-3.2,0.7-4,2.8
		c-5.8,15.1-12.8,29.7-20.7,43.9c-1,1.7-1.3,3.4-1.3,5.4c3,90.4,6,180.9,8.9,271.3c0.1,4,0.6,3.4-3.3,3.5c-11,0.4-22,0.6-33,1.2
		c-2.4,0.1-3-0.6-3-2.9c-2.3-72.4-4.7-144.8-7.1-217.2c0-1-0.1-2-0.1-3.1c-1.2,0.2-1.5,1.1-2,1.7c-29.7,36.7-64.1,68.3-102.5,95.5
		c-16.6,11.8-33.7,22.6-51.4,32.7c-1.4,0.8-2.1,0.8-2.9-0.7c-1.8-3.3-3.7-6.6-5.6-9.8c-0.3-0.5-0.3-1.2-1.1-1.2
		C1.5,1315.5,1.5,1315.1,1.5,1314.8z"/>
	<path class="st5" d="M1007.3,1185.7c1.5,45.6,3,91.3,4.5,136.9c0.1,3.1,0.2,6.2,0.9,9.2c1.7,8,5.5,12.1,13.5,13
		c9.4,1.2,18.8,1.3,28.2-0.9c8.5-2,13.4-7.2,15.2-15.5c1.8-8.3,1.8-16.7,1.8-25.1c0-16.6-1.1-33.1-1.8-49.6
		c-0.1-1.7,0.1-2.4,2.1-2.4c3.6,0,7.2-0.1,10.8-0.3c1.4-0.1,2,0.3,2.3,1.6c7,23.9,13.9,47.9,16.9,72.7c1,8.3,1.1,16.7,0.1,25.1
		c-1.6,14.5-10,22.9-23.6,26.9c-6.6,1.9-13.3,2.4-20.1,3.2c-15.1,1.6-30.2,1.9-45.3,1c-7.3-0.4-14.3-1.8-20.8-5.2
		c-8.9-4.8-13.1-12.9-15.7-22.2c-1.7-6.2-2.4-12.5-2.6-18.8c-3-89.8-5.9-179.7-8.8-269.5c-0.1-2.6-0.7-3.3-3.4-3.2
		c-37.5,1.3-75.1,2.5-112.6,3.7c-2.2,0.1-2.8,0.5-2.7,2.8c1.1,31.7,2.1,63.5,3.2,95.2c0.9,27.6,1,55.2-0.5,82.8
		c-1.2,22.5-4.4,44.7-11.9,66c-9.9,28.3-27.3,51-51.5,68.7c-12,8.8-24.9,16.1-38.2,22.7c-1.6,0.8-2.4,0.5-3.2-1
		c-1.7-2.8-3.5-5.5-5.4-8.1c-1.2-1.6-1-2.4,0.6-3.6c10.7-7.9,20.7-16.7,29.9-26.3c19.5-20.4,31.5-44.6,36.9-72.2
		c3.8-19.1,5.2-38.4,5.5-57.8c0.3-17.4,0.2-34.8-0.2-52.2c-1-44.8-2.8-89.6-4.2-134.3c-0.1-2,0.3-2.6,2.4-2.6
		c63.4-2,126.8-4.1,190.2-6.2c2.2-0.1,2.7,0.5,2.7,2.6C1004.2,1090.5,1005.7,1138.1,1007.3,1185.7z"/>
	<path class="st4" d="M406.6,1237c-1.9-57.7-3.8-115.5-5.7-173.2c-0.1-2.7,0.7-3.2,3.2-3.2c100.3-3.2,200.6-6.5,301-9.8
		c3.3-0.1,3.3-0.1,3.4,3.2c3.3,102.1,6.7,204.2,10,306.3c0.2,7.6-0.4,15.1-3.9,22c-5.4,10.7-14.5,16.6-26,19.2
		c-14.5,3.3-28.7,1.3-42.7-2.9c-14.1-4.2-27.3-10.4-40.3-17.4c-1.2-0.7-1.5-1.2-1.1-2.6c1.3-3.6,2.4-7.3,3.4-11
		c0.5-1.7,1.4-1.8,2.8-1.5c11.4,2.3,22.8,4.1,34.3,5.2c6.4,0.6,12.9,1,19.2-0.2c9.1-1.8,13.2-6.4,14.4-15.6c0.3-2.6,0.4-5.1,0.3-7.7
		c-3-91.4-6-182.7-8.9-274.1c-0.1-2.4-0.6-3.1-3.1-3c-74.7,2.5-149.4,5-224.2,7.3c-2.6,0.1-3.2,0.7-3.1,3.3
		c3.7,109.2,7.2,218.4,10.8,327.6c0.1,3.8,0.6,3.3-3.1,3.4c-10.6,0.4-21.3,0.6-31.9,1.1c-2.4,0.1-3.1-0.4-3.2-2.9
		C410.4,1352.7,408.4,1294.9,406.6,1237z"/>
	<path class="st4" d="M557.1,1185.3c24.3-0.8,48.6-1.6,72.9-2.4c2.3-0.1,2.8,0.4,2.9,2.7c1.4,44.5,2.8,89.1,4.4,133.6
		c0.1,2-0.3,2.8-2.5,2.8c-10.4,0.2-20.8,0.6-31.2,1c-1.8,0.1-2.3-0.4-2.3-2.2c-0.1-7.2-0.5-14.4-0.6-21.6c0-1.7-0.6-2.1-2.2-2
		c-25.1,0.9-50.2,1.7-75.2,2.5c-2,0.1-2.1,0.8-2.1,2.5c0.4,9.2,0.6,18.4,1,27.5c0.1,1.8-0.4,2.3-2.2,2.4c-10.7,0.3-21.3,0.6-32,1
		c-1.6,0.1-2.2-0.3-2.3-2c-1.5-47-3-94-4.6-141c-0.1-2.1,0.8-2.1,2.4-2.2C508,1186.9,532.5,1186.1,557.1,1185.3z M557.7,1203.9
		c-12.4,0.4-24.9,0.9-37.3,1.2c-1.9,0-2.4,0.5-2.4,2.5c0.8,23.7,1.6,47.3,2.3,71c0.1,2,0.7,2.3,2.5,2.2c24.9-0.9,49.8-1.7,74.7-2.4
		c1.8-0.1,2.4-0.4,2.4-2.4c-0.9-23.7-1.6-47.3-2.3-71c-0.1-2-0.7-2.4-2.5-2.3C582.6,1203.2,570.1,1203.5,557.7,1203.9z"/>
	<path class="st5" d="M228.4,1164.6c0.6,0.3,1.1,0.6,1.6,0.9c23.2,13.7,45.6,28.7,66.9,45.2c19.9,15.4,39.1,31.6,57.2,49.1
		c6.2,6,12.2,12.3,17.9,18.8c1.2,1.3,1.1,2-0.2,3.2c-10.9,10.1-21.8,20.2-32.6,30.4c-1.5,1.4-2,0.6-2.8-0.5
		c-14.5-20-30-39.3-45.8-58.3c-19.1-23-39.4-44.9-60.8-65.7c-3.3-3.2-6.6-6.5-10-9.6c-1.1-1-1.2-1.8-0.2-2.9c2.6-3,5-6.1,7.5-9.2
		C227.6,1165.5,228,1165.1,228.4,1164.6z"/>
	<path class="st5" d="M956,1237.8c-0.1,1-1.1,1-1.7,1.3c-11.2,5.4-22.4,10.8-33.5,16.2c-2,1-4.1,1.8-6,2.9c-1.5,0.9-2,0.4-2.4-1.1
		c-8.5-30.5-19.3-60.2-31.8-89.4c-4.5-10.6-9.2-21.2-14.4-31.5c-1-2.1-0.7-3.1,1.2-4.3c2.9-1.8,5.7-3.9,8.4-6
		c1.4-1.1,2.2-0.8,3.3,0.4c16.3,17.5,31.4,35.9,44.8,55.6c11.8,17.3,22.5,35.2,31.3,54.2C955.4,1236.8,955.7,1237.3,956,1237.8z"/>
	<path class="st6" d="M558.1,1137.3c-31.9,1-63.7,2.1-95.6,3.2c-2.4,0.1-3-0.6-3-2.9c0-4.5-0.2-9.1-0.4-13.6
		c-0.1-1.9,0.5-2.3,2.3-2.3c9.5-0.2,19.1-0.6,28.6-0.9c54.3-1.8,108.5-3.6,162.8-5.3c3.7-0.1,3.2-0.6,3.3,3.2
		c0.2,4.3,0.2,8.6,0.5,12.9c0.2,2.2-0.5,2.7-2.6,2.7C622,1135.2,590.1,1136.2,558.1,1137.3z"/>
</g>
</svg>
