<?xml version="1.0" encoding="utf-8"?>
<!-- Generator: Adobe Illustrator 25.0.0, SVG Export Plug-In . SVG Version: 6.00 Build 0)  -->
<svg version="1.1" id="圖層_1" xmlns="http://www.w3.org/2000/svg" xmlns:xlink="http://www.w3.org/1999/xlink" x="0px" y="0px"
	 viewBox="0 0 1866.3 547.1" style="enable-background:new 0 0 1866.3 547.1;" xml:space="preserve">
<style type="text/css">
	.st0{fill:#E59A31;}
	.st1{fill:#363230;}
	.st2{fill:#FFFFFF;}
	.st3{fill:#B37D62;}
	.st4{fill:#764D3B;}
	.st5{fill:#754C3B;}
	.st6{fill:#774F3C;}
</style>
<g>
	<path class="st0" d="M904.6,403.6c2.7-0.6,5.1-1.8,7.7-2.7c3.4-1.3,6.7-3,10-4.7c2.4-1.3,5.1-2.1,7.4-3.6c2.1-1.4,4.5-1.7,6.8-2.5
		c4.1-1.3,8.4-1.3,12.5-1.9c2-0.3,3.9-1,5.7-1.8c3.3-1.4,6.4-0.6,9.4,0.7c3.4,1.5,6.6,3.5,9.1,6.3c1.8,2,3,4.4,4.7,6.4
		c2.7,3,4.6,6.4,6.2,10.2c1.6,3.8,2.1,7.7,2.8,11.7c0.5,2.9-0.4,5.6,0.3,8.4c0.5,1.8-0.2,3.7-0.7,5.6c-1.3,4.8-1.2,9.8-1.2,14.8
		c0,3.1-1.1,6.1-3,8.2c-2.1,2.2-4.6,4.4-8,4.7c-1.4,0.1-2.1,1-2.7,1.9c-1.8,2.8-3.8,5.4-5.8,8.1c-2.3,3-5.3,5.3-8.1,7.9
		c-2.8,2.6-6,4.2-9.4,5.7c-0.1,0.1-0.2,0.1-0.3,0.2c-1.1,0.4-2.8,0-3.3,1.3c-0.4,1.1,0.5,2.3,0.7,3.5c0.7,3.7,0.2,7.4-1.4,10.7
		c-1.4,2.8-1.9,5.6-2.2,8.6c-0.3,2.9-1.9,5-3.5,7.2c-1.8,2.3-4,4.2-6.8,5.2c-2.2,0.8-4.4,2.2-6.8,2c-2.6-0.2-4.2,1.3-6.2,2.4
		c-2.7,1.4-5.5,2.2-8.5,1.5c-0.8-0.2-1.6-0.4-2.5-0.5c-3-0.5-5.8-1.2-7.8-4c-0.8-1.1-1.8-2-2.6-3.2c-1.2-1.8-3.6-1.6-5.6-1.8
		c-0.3,0-0.6,0.1-0.8,0.4c-0.5,1.2-1.3,2.4-1.4,3.6c-0.2,1.9-1.4,2.4-2.8,2.7c-2.7,0.6-5.2,0.6-7.9-0.6c-2.7-1.2-5.7-2-7.7-4.2
		c-1.5-1.7-3-3.5-5-4.5c-2.9-1.3-4.6-3.8-6.5-6.1c-0.6-0.8-0.5-1.9-1.3-2.6c0.3-1.4-0.4-2.7-1-3.9c-0.8-1.7-1.3-3.9-4-3.9
		c-1,0-1.4-1-1.4-2.1c0-1.2,0.1-2.4,1.3-3.1c1.3-0.7,5.5,0,6.3,1.3c1.7,2.6,3.4,5.3,4,8.4c0.6,2.9,2.2,5,4.7,6.3
		c2,1,3.7,2.3,5.1,3.9c2.5,2.9,5.8,4.4,9.3,5.5c0.8,0.2,1.7,0.2,1.9-0.8c0.3-1.7,1.2-3.1,2.1-4.5c1-1.5,2.7-2.1,4.3-2.2
		c3.3-0.1,6.3,1.1,9.1,2.6c0.8,0.4,1.5,1,1.8,1.8c1.5,3.5,4.4,4.6,7.8,5.2c2.3,0.4,4.8,0.5,6.4-1c2.5-2.3,5.4-2.7,8.5-3.1
		c4.5-0.6,8.2-2.4,10.6-6.5c0.4-0.7,0.7-1.3,0.8-2c0.6-3.5,1.3-7,2.9-10.3c0.5-1,1-2.2,1.2-3.3c0.8-3.7-1.8-9.1-5.4-10.5
		c-3.5-1.3-6.5-3.6-9.9-5.1c-1.8-0.8-3.4-2.2-5.2-3.1c-2.4-1.2-5-2-7.3-3.6c-3.3-2.3-6-5.4-9.7-6.7c1.5,4.3,2,12.8,0.5,18
		c-0.8,3-2.1,5.8-2.4,9c-0.1,1.3-0.9,2.9-1.9,3.7c-2.5,2.2-4.2,4.5-4.1,8c0.1,1.3-1.1,2.4-2.6,2.5c-1.3,0.1-2.7-0.5-2.9-1.9
		c-0.5-3.7,0-7.3,2.7-10.2c1.8-1.9,3.5-3.9,3.8-6.7c0.2-1.5,0.5-3.1,1.1-4.5c1.8-3.8,1.7-7.7,1.4-11.6c-0.1-1.3-0.5-2.9-1.5-3.5
		c-1.3-0.9-2.3-2-3.5-3.1c-2.8-2.6-6-4-9.9-3.4c-2.6,0.4-5.1,0.8-7.5,2c-1.5,0.8-2.8,2.1-3.2,3.8c-0.9,3.5-4.2,6.8-7.7,7.4
		c-0.6,0.1-1.2,0.3-1.8,0.5c-2.8,1-3.8,4.1-6.4,5.4c-1.3,0.6-2.5,1.6-3.8,2.1c-1.5,0.5-3.1-0.8-3.2-2.5c-0.1-1.8,1-3,2.3-4
		c1.4-1.1,3-1.8,4.2-3.3c1.8-2.4,4.4-3.7,7.3-4.3c2.2-0.5,3.1-2.2,3.9-3.9c0.6-1.3,0-2.7-1.1-3.9c-3-3.3-7-4.7-11.2-5.8
		c-1.2-0.3-5,1.6-5.4,2.6c-1.1,2.9-2.5,5.6-3.4,8.5c-0.4,1.3-2.5,2.6-3.8,2.4c-1.8-0.3-1.9-1.7-1.8-3.2c0.2-3,1.7-5.6,2.9-8.2
		c0.9-1.9,0.4-2.9-0.3-4.4c-0.4-0.9-0.9-0.8-1.6-0.3c-3.9,2.6-6.6,1.8-8.5-2.6c-0.3-0.8-0.8-1.3-1.7-1c-1.1,0.4-2.2,0.5-3.1,1.4
		c-3.5,3.3-6.2,3.6-10.1,1.7c-0.7-0.4-1.3-0.5-2.1,0c-3.1,1.6-3.9,4.9-1.4,7.5c2.3,2.4,4.7,4.7,8,5.8c1.7,0.6,2.4,2.2,1.7,4.1
		c-0.5,1.4-2,2.2-3.6,1.7c-3.8-1.1-6.8-3.6-9.4-6.5c-1.9-2.1-4-3.9-7-4.5c-1.4-0.3-2.6-0.8-3.8-1.6c-3.3-2.3-8.1-0.5-9.6,3.2
		c-0.3,0.8-0.9,1.5-1.4,2.1c-1.9,2.1-4.5,3.4-6.4,5.5c-3,3.2-2.5,8.6,1.4,10.6c1.1,0.6,2.2,0.3,3.3,0.6c2.6,0.8,5.1,1.8,7.8,2.4
		c4.4,1,8.6-0.5,12.7-1.4c3.6-0.8,7.1-2,10.8-2.6c2.7-0.5,5.5-0.1,7.9,1.3c1.6,0.9,1.4,2.5,0.9,3.8c-0.6,1.4-1.8,2-3.4,1.3
		c-1.9-0.8-4-0.7-5.9-0.3c-4.3,0.9-8.3,2.7-12.7,3.2c-0.7,0.1-0.9,0.3-1,1c-0.1,1.8-1.1,2.7-2.9,2.7c-0.5,0-1.1,0.1-1.4,0.3
		c-2.3,1.6-4.8,2.8-6.8,5.2c-2.2,2.8-4.7,5.4-6.4,8.5c-1.9,3.6-3.8,7.3-1.7,11.4c0.9,1.7,1.7,3.5,1.9,5.3c0.2,2.5,1.5,4,3.3,5.3
		c1.2,0.9,2.2,2.1,3.7,2.4c3.3,0.5,5.7,2.3,7.9,4.6c2.4,2.5,5.5,3.1,8.9,2.9c2.3-0.1,3.7-1.7,5.4-3.1c1.8-1.5,3.8-2.6,6.3-2
		c1.1,0.3,2.1,1.1,3.3,1.2c0.3,0.4,0.5,0.8,0.7,1.2c0.8,1.6,2,2,3.6,1.3c2.3-0.8,4.5-1.5,6-3.5c2.1-2.8,4.8-4.5,8.1-5.5
		c1.4-0.4,2.2-1.2,2.4-2.8c0.2-2.8-0.4-5.4-1.1-8c-0.6-2-2-3.7-2.6-5.7c-0.7-2.5-1.1-5-1.4-7.6c-0.5-4.4,0-8.3,2.8-11.7
		c0.5-0.6,1.1-1.2,0.6-2.1c-0.5-0.9-1.1-0.8-2-0.8c-1.1,0-2.3-0.4-2.6-1.7c-0.3-1.5-0.4-3.3,1.2-4c2-0.8,4.3-0.5,6.1,0.6
		c4.2,2.5,4.1,9,1.7,11.5c-3.4,3.5-2.6,7.5-1.6,11.3c1.1,4.6,3.4,8.8,4.6,13.4c-0.4,2.8,0.4,5.6-0.7,8.3c-1,2.4-2.2,4.2-5,5
		c-2.6,0.7-5.1,1.9-6.7,4.5c-1,1.6-2.5,2.9-4.7,3.3c-1.1,0.2-2,1.2-3.3,1.5c-2.9,0.8-5.5-0.6-8.2-1.1c-0.6-0.1-0.8-0.9-1.1-1.4
		c-0.8-1.3-2.2-1.3-3.2-0.2c-3.3,3.8-7.8,4.8-12.6,3.7c-0.9-0.2-1.8-0.6-2.7-0.7c-2.7-0.2-4.6-2-6.4-3.7c-1.8-1.7-3.9-2.9-6.3-3.5
		c-2.4-0.6-4.5-2-5.9-4.1c-0.2-0.3-0.3-0.5-0.6-0.7c-1.9-1.5-2.7-3.6-2.9-5.9c-0.3-2.6-2.3-4.5-2.8-7c-0.6-3.7-0.6-7.4,0.9-10.9
		c1.3-3.1,2.7-6.2,4.9-8.8c2.4-2.9,4.5-6,7.6-8.2c0.3-0.2,0.8-0.3,0.7-0.7c-0.1-0.2-0.5-0.3-0.7-0.5c-2.8-1.6-5.9-2.2-9.1-2.6
		c-2.9-0.4-5.3-2-6.7-4.5c-3.8-7.2-1.2-16.2,6.3-20.4c1.4-0.8,2.7-2.1,2.9-3.5c0.5-3.7,3.7-4.5,6.1-5.4c3.3-1.2,7-1,10.3,0.6
		c1.3,0.6,2.6,1.2,3.8,1.8c1,0.5,1.2,0.2,1.1-0.8c-0.1-1.4-0.2-2.8,0.8-3.9c2.4-2.4,4.8-4.7,8.6-4.3c1.4,0.2,2.6,0.9,3.9,1.1
		c0.4,0.1,0.9,0.6,1.4,0.1c1.7-1.7,4-2.4,6-3.6c3.5-2.1,8.9,0.8,9.5,4c3.5-2.4,7.6-2.2,9.8,2.3c0.4,0.8,0.9,1,1.4,0.5
		c1.1-0.8,2.4-0.8,3.5-1c1.2-0.2,1.9-1.2,1.9-1.7c-0.2-1.4,0.8-2.4,1.3-3.4c0.9-1.8,2.1-3.6,3.6-4.9c5.1-4.1,10.9-7.3,16.4-10.7
		c4.7-2.9,9-6.4,13-10.3c1.8-1.8,3.5-3.9,3.5-6.7c0-2.4,0-4.7-0.1-7.1c0-1.1-0.1-2.3,0.5-3.3c1.4-2.3,0.3-4.3-0.4-6.5
		c-0.5-1.7-2.1-2.6-2.8-4c-1-1.8-2.4-2.9-4-4c-1.6-1-3.1-2-4.4-3.2c-1.9-1.9-3.4-4.2-5.7-5.8c-1.2-0.8-2.3-1.8-3.4-2.6
		c-3.6-2.7-7.8-4.6-10.8-8.2c-0.9-1.1-2.4-2.3-4.2-2.7c-5.5-1.2-11.1-0.1-16.6-1c-2.8-0.4-5.5,0.5-8.3,0.6c-2.2,0.1-4,1-5.8,2.1
		c-2.8,1.7-5.3,4.1-8.7,4.5c-1.6,0.2-3.4-0.3-4.8,0.3c-2.9,1.1-6.1,1.1-8.7,2.8c-2.6,1.6-5.8,2-8.3,3.7c-0.8,0.5-1.8,0.6-2.7,0.3
		c-0.6-0.2-1.2-0.3-1.8-0.2c-3.7,0.6-7.4,0.6-11.1,0.8c-2.4,0.1-5,0.4-7.3,1.2c-5,1.8-9.9,3.9-14.4,6.9c-2.9,2-5.2,4.5-6,7.9
		c-1.2,4.9-4.1,9.1-5.3,14.1c-0.3,1.2-0.7,2.3-0.2,3.5c0.7,1.9,0.5,4,0.9,6c0.2,1.1-0.1,2.1-0.9,2.9c-1.4,1.6-2.7,3.4-4.3,4.8
		c-2,1.7-2.8,3.9-3.3,6.2c-0.2,0.8-0.5,1.3-0.9,2c-1.1,1.9-2.9,3-4.6,4.2c-0.1,0.2-0.2,0.3-0.3,0.5c0,0,0,0,0,0
		c-1.3,0.3-2.1,1.7-2.3,2.5c-0.3,1.3-2.2,2.3-1.1,4c-0.5,2.5-2,4.4-3.4,6.5c-1.3,2-2.7,4.5-1.7,6.9c0.9,2.3,0.8,4.6,1,6.9
		c0.3,2.5-0.1,5.2,1.3,7.6c0.7,1.3,2,2.1,2.8,3.3c2,3,2.8,6.2,3.1,9.7c0.2,2.1,0.6,4.3,1.9,5.9c1.6,2,3.4,4.1,5.6,5.4
		c3.5,2.2,6.6,5,9.8,7.4c0.6,0.5,1.5,0.9,1.8,1.6c1,2.1,2.8,3.4,4.5,4.5c4.9,3,10.1,3.6,15.5,1.1c1.4-0.7,2.8-0.2,4.1,0.6
		c1.1,0.7,0.9,1.9,0.8,2.9c-0.2,1.3-1.7,1.6-2.2,2.7c-1.6,0.4-3.3,0.7-4.9,1.3c-0.8,0.3-1.8,0.2-2.8,0.2c-3.2-0.1-6.4-0.1-9.4-1.3
		c-2.9-1.1-5.6-2.6-7.6-5.3c-2.2-2.9-5-5.2-8.1-7.2c-5.3-3.5-10.4-7.1-13.2-13.1c-1.1-2.4-1.1-5-1.5-7.6c-0.3-1.9-1.1-3.5-2-5.2
		c-0.5-1.1-1.6-1.2-2.7-1.2c-7.5,0-15.1,0-22.6,0c-1.6,0-1.9-0.4-1.9-1.9c0.1-10,0.1-19.9,0-29.9c0-1.6,0.4-1.9,2-1.9
		c7.3,0.1,14.6,0,21.9,0.1c1.7,0,2.1-0.6,2.4-2.2c1.1-4.6,2.8-9,7.6-11.2c1.4-0.7,1.8-2,2.1-3.3c0.5-2.3,1.3-4.8,3.1-6.2
		c1.6-1.2,2.6-2.7,4-4c0.7-0.7,0.7-1.3,0.5-2.3c-1-3.7-1.6-7.3,0.3-11c0.6-1.2,0.8-2.6,1.2-3.9c0.5-1.6,1.1-3.2,2.2-4.5
		c0.4-0.5,0.8-1.2,0.9-1.8c0.2-2.4,1.3-4.5,2.1-6.9c-0.6,0-1,0-1.5,0c-21.4,0-42.7,0-64.1,0c-1.7,0-2.1,0.4-2,2.1
		c0.1,14.8,0.1,29.6,0,44.5c0,14.2-0.1,28.4-0.1,42.6c0,1.6-0.6,1.8-1.9,1.8c-11.3,0-22.7-0.1-34,0c-1.7,0-2.2-0.5-2.2-2.2
		c0.1-7.5,0.1-14.9,0.2-22.4c0.1-31.6,0.1-63.2,0-94.7c0-1.9,0.4-2.4,2.3-2.4c20.9,0.1,41.9,0,62.8,0.1c1.9,0,2.3-0.6,2.3-2.4
		c-0.1-18.7-0.1-37.5-0.1-56.2c0-1.7-0.5-2.1-2.1-2.1c-25.2,0.1-50.5,0-75.7,0.1c-1.7,0-2.2-0.4-2.2-2.1c0.1-7.3,0-14.6,0.1-21.9
		c0-2.8-0.4-2.5,2.4-2.5c25,0,50.1,0,75.1,0c2.4,0,2.4,0,2.4-2.4c0-18,0-36,0-54c0-1.6,0.4-2.1,2.1-2.1c11.6,0.1,23.3,0.1,34.9,0
		c1.7,0,2,0.5,2,2.1c0,47,0,93.9,0,140.9c0,2.6,0,2.6,2.5,2.6c20.7,0,41.5,0,62.2,0c1.6,0,2.4,0.3,2.2,2.1c-0.2,1.3,0,2.6,0,3.9
		c-0.1,1.3,0.4,1.4,1.5,1c1.7-0.6,3.1-1.6,4.5-2.6c4-3,8.7-3.5,13.4-4.3c2.9-0.4,5.6,0.2,8.4,0.3c2.9,0.2,5.9-0.2,8.9,0.1
		c5.3,0.6,10.3,1.7,14,6.3c2.5,3.1,6.3,4.7,9.5,7c2.7,1.9,5.3,3.8,7.4,6.5c1.4,1.8,3.2,3,5.1,4.2c2.2,1.4,4.1,3,5.5,5.3
		c1.4,2.3,3.4,4.2,4.2,6.9c-0.1,1.9,0.8,3.8,0.4,5.7c-0.9,4.2-1.1,8.5-0.9,12.8c0.1,1.7-0.4,3.5-1,5c-1.3,3.2-3.6,5.8-6.3,7.8
		c-3.8,2.8-7,6.4-11.3,8.4c-3.6,1.7-6.6,4.4-10.1,6.3c-3.1,1.7-5.9,4-8.1,7c-1.8,2.5-1.5,3.4,1.4,4.2c0.8,0.2,1.2,0,1.5-0.6
		c0.3-0.8,1-1.2,1.6-1.4c3.6-1.6,7.2-2.7,11.2-1.5c1,0.3,2.3,0.4,3.2,0c6.3-2.2,12.7-1.4,19-0.2c3.6,0.7,7.4,1.3,10.4,3.9
		c2.1,1.9,4.7,3.3,6.4,5.7c2.1,3.1,3.3,6.6,5.6,9.6c0.6,0.8,1.4,1.6,1.5,2.7c0.1,1.2,1,1.7,2,2.2c3.1,1.5,6.3,2.9,9.3,4.6
		c5.5,3.3,11.2,2.9,16.3-0.6c2.6-1.8,5.1-3.9,7.3-6.3c1.7-1.8,3.4-3.6,4.8-5.8c1.8-2.9,3.7-5.9,6.7-7.9c1-0.7,2.3-0.6,3.1-1.5
		c2.5-0.1,4.3-1.7,5.5-3.5c1.1-1.8,1.5-4,1.3-6.3c-0.3-3.2,0.1-6.4,0.2-9.6c0.3-1.7,0.6-3.5,1-5.2c1-1.1,0.3-2.4,0.3-3.6
		c0-2.9,0.6-5.8-0.4-8.6c-0.7-2.6-1.1-5.4-2.3-7.7c-1-1.9-1.6-4-3-5.8c-1.8-2.3-4.2-4.2-5.3-7c-0.2-0.1-0.4-0.3-0.7-0.4
		c-0.1-0.1-0.2-0.2-0.3-0.3c0-0.3,0-0.5-0.4-0.5l0,0c0.1-1.1-0.6-1.7-1.5-2.3c-1.8-1.1-3.7-2.2-5.5-3.4c-2.1-1.4-4.1-0.9-6.2-0.2
		c-2.9,0.9-5.9,1.9-9,2c-3.6,0.1-6.9,1.1-10.2,2.1c-3.2,0.9-6.4,2-9.2,3.8c-1.5,0.9-3.1,1.4-4.6,2.3c-2,1.4-4.4,2.1-6.7,3.1
		c-2.1,0.9-4.2,1.8-6.4,2.6c-1.8,0.6-3.5,1.6-5.4,1.8c-1.8,0.2-2.9-0.8-3.1-2.6C901,405.1,903,404.6,904.6,403.6z M911.2,465.9
		c-1.2-1.4-2.9-2.2-4.2-3.5c-2.6-2.6-6.1-3.5-9-5.5c-1.3-0.9-3-0.2-4.3-1c-1.6-0.9-3.1-1-4.8-0.5c-0.4,0.1-1.3,0-0.9,0.7
		c0.4,0.7-0.4,2.1,1,2.3c1.2,0.1,2.2,0.6,3.1,1.2c2.4,1.6,4.7,2,7.5,1.2c2.5-0.7,5-0.2,6.9,2C907.8,464.3,909.3,465.5,911.2,465.9z
		 M869.7,457.8c0.8,1.1,2.1,1.7,2.5,3c0.2,0.6,0.5,0.4,0.8,0.2c2.7-1.3,5.6-1.9,8.7-2.8C877.7,455.9,873.8,455.1,869.7,457.8z"/>
	<path class="st0" d="M456.1,499.8c4.3-1.2,8.1-3.2,12.1-4.9c12.7-5.5,23.3-14,33.6-23c16.5-14.3,30.5-30.7,41.2-49.8
		c0.8-1.4,0.6-2-0.6-2.9c-10.6-7.6-21.4-14.8-32.5-21.5c-1.2-0.7-1.6-0.7-2.1,0.7c-2.2,6-4.5,11.8-6.7,17.8c-0.5,1.2-1,1.6-2.3,1.2
		c-10.6-2.6-21.3-5.2-31.9-7.7c-1.6-0.4-1.8-0.8-1.2-2.3c8.3-20.9,15.8-42.1,22.8-63.5c6-18.2,11.6-36.5,17-54.8
		c0.6-2.1,0.6-2.1-1.7-2.1c-13.9,0-27.8,0-41.7,0c-1.8,0-2.1-0.5-2-2.2c0.3-4.7,0.2-9.5,0.3-14.2c0-0.6,0-1.1,0-1.7
		c-0.1-1.4,0.6-1.8,2-1.8c15.8,0.1,31.6,0,47.5,0.1c1.5,0,2.1-0.3,2.5-1.9c5.5-21.2,10.6-42.5,14.8-63.9c0.2-1.1,0.4-1.7,1.7-1.3
		c12,2.8,24,5.6,36,8.3c1.2,0.3,1.6,0.6,1.3,1.9c-3.8,18.8-8.7,37.3-14.1,55.7c-5.1,17.3-10.1,34.6-15.5,51.8
		c-6.5,20.4-13.5,40.7-21.1,60.7c-0.7,1.7-0.5,2.3,1.3,2.9c12.5,4.2,24.9,9,37.1,14.1c1.5,0.6,1.9,0.3,2.5-1.1
		c9.3-23.6,15.7-48.1,20.2-73c1.9-10.7,3.4-21.5,4.8-32.3c0.2-1.6-0.1-2.2-1.9-2.2c-4.7,0.1-9.5,0-14.2,0.1c-1.2,0-1.3-0.3-1-1.4
		c1.5-5.8,3-11.5,4.5-17.3c0.2-0.9,0.6-1.2,1.5-1.2c17.4,0,34.8,0,52.1,0c1,0,1.3,0.3,1.2,1.3c-1.9,17.3-4.3,34.4-7.7,51.5
		c-3.8,19.5-8.7,38.8-15.4,57.6c-3.9,10.9-8.4,21.5-13.5,31.9c-0.6,1.3-0.5,1.8,0.8,2.5c15.3,8.5,29.9,18.2,43.8,28.7
		c1.2,0.9,1.4,1.4,0.5,2.7c-8,10.7-15.9,21.5-23.8,32.4c-1,1.3-1.4,1.3-2.5,0.1c-11.3-12.6-23.4-24.5-36.3-35.5
		c-0.9-0.8-1.4-0.9-2.1,0.2c-17.2,23.1-39,41.1-63.7,55.7c-10.3,6-20.6,12.1-31.6,16.8c-7.2,3.1-14.7,5.6-22.5,6.4
		c-3.1,0.3-6.2,0.3-9.3-0.3c-7.2-1.4-11.6-6.8-11.6-14.1c-0.1-11.3,10-21.2,21.1-20.6c3.6,0.2,6.5,1.6,8,5.1
		c1.6,3.6,1.5,6.9-1.2,9.9C456.4,499.4,456.2,499.6,456.1,499.8z M455.8,500.2l-0.1-0.1l0,0.1L455.8,500.2z"/>
	<path class="st1" d="M734.3,441.5C734.3,441.5,734.3,441.5,734.3,441.5c0.1-0.1,0.2-0.3,0.3-0.4c1.6-1.3,3.4-2.4,4.6-4.2
		c0.4-0.6,0.7-1.2,0.9-2c0.5-2.4,1.3-4.5,3.3-6.2c1.6-1.4,2.9-3.2,4.3-4.8c0.7-0.8,1.1-1.9,0.9-2.9c-0.4-2-0.2-4.1-0.9-6
		c-0.5-1.3-0.1-2.3,0.2-3.5c1.2-4.9,4.2-9.1,5.3-14.1c0.8-3.3,3.1-5.9,6-7.9c4.5-3,9.4-5.2,14.4-6.9c2.3-0.8,4.8-1.1,7.3-1.2
		c3.7-0.1,7.4-0.2,11.1-0.8c0.6-0.1,1.2,0,1.8,0.2c0.9,0.3,1.9,0.3,2.7-0.3c2.6-1.7,5.7-2.1,8.3-3.7c2.7-1.7,5.9-1.7,8.7-2.8
		c1.4-0.5,3.2,0,4.8-0.3c3.5-0.5,5.9-2.8,8.7-4.5c1.8-1.1,3.6-2,5.8-2.1c2.8-0.1,5.5-1.1,8.3-0.6c5.5,0.8,11.1-0.2,16.6,1
		c1.8,0.4,3.3,1.6,4.2,2.7c3,3.6,7.2,5.5,10.8,8.2c1.1,0.8,2.2,1.8,3.4,2.6c2.3,1.6,3.7,3.9,5.7,5.8c1.3,1.3,2.9,2.3,4.4,3.2
		c1.7,1,3,2.1,4,4c0.8,1.4,2.3,2.3,2.8,4c0.6,2.2,1.8,4.2,0.4,6.5c-0.6,1-0.5,2.1-0.5,3.3c0.1,2.4,0.1,4.7,0.1,7.1
		c0,2.8-1.6,4.9-3.5,6.7c-4,3.9-8.3,7.3-13,10.3c-5.5,3.5-11.3,6.6-16.4,10.7c-1.5,1.2-2.7,3.1-3.6,4.9c-0.5,1-1.4,1.9-1.3,3.4
		c0.1,0.5-0.7,1.5-1.9,1.7c-1.2,0.2-2.5,0.1-3.5,1c-0.5,0.4-1.1,0.2-1.4-0.5c-2.1-4.4-6.3-4.7-9.8-2.3c-0.6-3.2-6-6.1-9.5-4
		c-2,1.2-4.3,1.9-6,3.6c-0.5,0.5-0.9,0-1.4-0.1c-1.3-0.2-2.5-0.9-3.9-1.1c-3.8-0.5-6.3,1.8-8.6,4.3c-1,1.1-0.9,2.5-0.8,3.9
		c0.1,1-0.1,1.3-1.1,0.8c-1.3-0.7-2.6-1.2-3.8-1.8c-3.4-1.6-7-1.8-10.3-0.6c-2.4,0.9-5.6,1.7-6.1,5.4c-0.2,1.5-1.5,2.8-2.9,3.5
		c-7.5,4.2-10.1,13.3-6.3,20.4c1.3,2.5,3.7,4.1,6.7,4.5c3.2,0.4,6.3,1,9.1,2.6c0.3,0.1,0.7,0.3,0.7,0.5c0.1,0.4-0.4,0.5-0.7,0.7
		c-3.1,2.2-5.2,5.4-7.6,8.2c-2.2,2.6-3.6,5.7-4.9,8.8c-1.5,3.6-1.5,7.2-0.9,10.9c-1.6,0-3.2-0.1-4.8-0.1c0.5-1.1,2-1.4,2.2-2.7
		c0.1-1,0.3-2.2-0.8-2.9c-1.3-0.8-2.7-1.2-4.1-0.6c-5.4,2.6-10.6,2-15.5-1.1c-1.7-1.1-3.6-2.4-4.5-4.5c-0.3-0.7-1.2-1.1-1.8-1.6
		c-3.3-2.5-6.4-5.2-9.8-7.4c-2.1-1.4-4-3.4-5.6-5.4c-1.3-1.6-1.7-3.9-1.9-5.9c-0.3-3.5-1.1-6.8-3.1-9.7c-0.8-1.2-2-2-2.8-3.3
		c-1.4-2.4-0.9-5.1-1.3-7.6c-0.3-2.3-0.1-4.6-1-6.9c-1-2.4,0.4-4.9,1.7-6.9c1.4-2.1,2.8-4,3.4-6.5
		C732.8,446.1,733.3,443.7,734.3,441.5z"/>
	<path class="st0" d="M575.8,155.1c0-16.4,0-32.9,0-49.3c0-1.7,0.5-2,2.1-2c11.7,0.1,23.4,0.1,35.1,0c1.4,0,1.8,0.3,1.8,1.7
		c-0.1,11.4,0,22.8-0.1,34.2c0,1.5,0.4,1.8,1.9,1.8c23.1,0,46.2-0.1,69.3,0c1.8,0,2-0.6,2-2.1c0-11.1,0-22.2,0-33.3
		c0-1.5,0.2-2,1.9-2c11.7,0.1,23.4,0.1,35.1,0c1.6,0,1.9,0.5,1.9,2c-0.1,11.1,0,22.3,0,33.4c0,1.5,0.3,2,1.9,2
		c11.5,0,22.9,0,34.4,0.1c14.4,0.1,28.9,0.1,43.3,0.2c10.1,0,20.2,0.1,30.3,0.1c1.3,0,1.7,0.3,1.7,1.6c-0.1,8.3-0.1,16.6,0,24.8
		c0,1.4-0.5,1.6-1.7,1.6c-19.7-0.2-39.4-0.2-59-0.5c-14.9-0.2-29.8-0.2-44.6-0.3c-1.4,0-2.9,0-4.3-0.2c-1.5-0.2-2,0.3-2,1.9
		c0.1,10.5,0,20.9,0.1,31.4c0,1.8-0.5,2.1-2.2,2.1c-11.6-0.1-23.3-0.1-34.9,0c-1.5,0-1.8-0.4-1.8-1.9c0.1-10.5,0-21.1,0.1-31.6
		c0-1.5-0.4-2-2-2c-23.2,0-46.3,0.1-69.5,0c-1.6,0-1.8,0.6-1.8,1.9c0,11.3,0,22.5,0.1,33.8c0,1.6-0.4,1.9-1.9,1.9
		c-11.6-0.1-23.3-0.1-34.9,0c-1.6,0-2.1-0.3-2.1-2C575.8,188.1,575.8,171.6,575.8,155.1z"/>
	<path class="st1" d="M827.1,537.1c-1.2-0.1-2.2-0.9-3.3-1.2c-2.5-0.6-4.4,0.5-6.3,2c-1.6,1.3-3.1,2.9-5.4,3.1
		c-3.3,0.2-6.4-0.4-8.9-2.9c-2.2-2.3-4.6-4.1-7.9-4.6c-1.5-0.2-2.5-1.5-3.7-2.4c-1.8-1.3-3.1-2.8-3.3-5.3c-0.2-1.8-1-3.6-1.9-5.3
		c-2.1-4.1-0.2-7.8,1.7-11.4c1.7-3.2,4.1-5.8,6.4-8.5c1.9-2.4,4.5-3.5,6.8-5.2c0.4-0.3,0.9-0.3,1.4-0.3c1.8,0,2.8-0.9,2.9-2.7
		c0-0.7,0.3-1,1-1c4.4-0.5,8.4-2.3,12.7-3.2c1.9-0.4,4-0.5,5.9,0.3c1.6,0.7,2.8,0.1,3.4-1.3c0.5-1.3,0.7-2.9-0.9-3.8
		c-2.5-1.4-5.2-1.8-7.9-1.3c-3.6,0.7-7.2,1.8-10.8,2.6c-4.1,0.9-8.4,2.4-12.7,1.4c-2.6-0.6-5.2-1.6-7.8-2.4
		c-1.1-0.3-2.2-0.1-3.3-0.6c-3.9-2-4.4-7.4-1.4-10.6c2-2.1,4.5-3.4,6.4-5.5c0.6-0.6,1.1-1.4,1.4-2.1c1.4-3.7,6.3-5.5,9.6-3.2
		c1.2,0.9,2.5,1.3,3.8,1.6c2.9,0.6,5.1,2.4,7,4.5c2.6,2.9,5.5,5.4,9.4,6.5c1.5,0.5,3.1-0.3,3.6-1.7c0.6-1.9,0-3.5-1.7-4.1
		c-3.3-1.1-5.8-3.4-8-5.8c-2.5-2.6-1.7-5.9,1.4-7.5c0.8-0.4,1.3-0.3,2.1,0c3.9,1.9,6.6,1.6,10.1-1.7c0.9-0.9,2.1-1,3.1-1.4
		c0.9-0.3,1.3,0.2,1.7,1c1.8,4.4,4.6,5.2,8.5,2.6c0.7-0.5,1.1-0.6,1.6,0.3c0.7,1.4,1.2,2.5,0.3,4.4c-1.2,2.6-2.7,5.2-2.9,8.2
		c-0.1,1.4,0,2.8,1.8,3.2c1.3,0.2,3.4-1,3.8-2.4c0.9-3,2.3-5.7,3.4-8.5c0.4-1,4.2-2.9,5.4-2.6c4.2,1.1,8.1,2.5,11.2,5.8
		c1.1,1.2,1.7,2.6,1.1,3.9c-0.8,1.7-1.7,3.4-3.9,3.9c-2.9,0.6-5.5,1.9-7.3,4.3c-1.1,1.5-2.8,2.2-4.2,3.3c-1.3,1-2.4,2.2-2.3,4
		c0.1,1.7,1.6,3,3.2,2.5c1.4-0.5,2.6-1.5,3.8-2.1c2.6-1.3,3.6-4.5,6.4-5.4c0.6-0.2,1.1-0.4,1.8-0.5c3.5-0.6,6.8-4,7.7-7.4
		c0.4-1.7,1.7-3,3.2-3.8c2.3-1.2,4.9-1.5,7.5-2c3.9-0.6,7.1,0.8,9.9,3.4c1.1,1,2.1,2.2,3.5,3.1c1,0.7,1.4,2.3,1.5,3.5
		c0.3,4,0.3,7.9-1.4,11.6c-0.6,1.4-1,2.9-1.1,4.5c-0.3,2.9-2,4.8-3.8,6.7c-2.7,2.9-3.2,6.5-2.7,10.2c0.2,1.4,1.5,2,2.9,1.9
		c1.4-0.2,2.6-1.2,2.6-2.5c-0.2-3.5,1.6-5.8,4.1-8c1-0.9,1.8-2.4,1.9-3.7c0.2-3.2,1.6-6,2.4-9c1.4-5.2,1-13.8-0.5-18
		c3.7,1.3,6.4,4.4,9.7,6.7c2.3,1.6,4.9,2.5,7.3,3.6c1.8,0.9,3.4,2.3,5.2,3.1c3.4,1.5,6.3,3.7,9.9,5.1c3.6,1.3,6.2,6.8,5.4,10.5
		c-0.2,1.1-0.7,2.2-1.2,3.3c-1.6,3.3-2.2,6.7-2.9,10.3c-0.1,0.7-0.5,1.4-0.8,2c-2.4,4-6.1,5.9-10.6,6.5c-3.1,0.4-6,0.8-8.5,3.1
		c-1.6,1.5-4.1,1.4-6.4,1c-3.4-0.6-6.4-1.7-7.8-5.2c-0.3-0.8-1.1-1.4-1.8-1.8c-2.9-1.5-5.9-2.7-9.1-2.6c-1.6,0-3.3,0.7-4.3,2.2
		c-0.9,1.4-1.8,2.8-2.1,4.5c-0.2,1.1-1.1,1.1-1.9,0.8c-3.5-1.1-6.8-2.6-9.3-5.5c-1.4-1.6-3.1-2.9-5.1-3.9c-2.5-1.3-4.1-3.4-4.7-6.3
		c-0.6-3.1-2.3-5.8-4-8.4c-0.8-1.3-5-2-6.3-1.3c-1.2,0.6-1.3,1.9-1.3,3.1c0,1.1,0.4,2.1,1.4,2.1c2.7,0,3.2,2.2,4,3.9
		c0.6,1.1,1.3,2.4,1,3.9c-2,1.8-1.9,4.3-2.2,6.7c-0.3,2.8-0.8,5.5-2.5,7.8c-1.2-4.6-3.5-8.9-4.6-13.4c-0.9-3.8-1.7-7.7,1.6-11.3
		c2.4-2.5,2.5-9-1.7-11.5c-1.8-1.1-4.1-1.4-6.1-0.6c-1.6,0.6-1.5,2.5-1.2,4c0.2,1.3,1.4,1.7,2.6,1.7c0.9,0,1.5-0.1,2,0.8
		c0.5,0.9,0,1.5-0.6,2.1c-2.8,3.5-3.3,7.3-2.8,11.7c0.3,2.6,0.7,5.1,1.4,7.6c0.6,2,2,3.6,2.6,5.7c0.7,2.6,1.3,5.3,1.1,8
		c-0.1,1.5-1,2.3-2.4,2.8c-3.3,1-6,2.7-8.1,5.5c-1.5,2-3.8,2.8-6,3.5C830.3,538.2,828.9,537.4,827.1,537.1z"/>
	<path class="st1" d="M981.2,432.4c-0.3,1.7-0.6,3.5-1,5.2c-1.7,3.4-3.1,6.9-3.8,10.6c-0.6,3.1-1.8,6.1-3.2,8.9
		c-0.8,0.9-2.1,0.9-3.1,1.5c-3,2-4.9,5-6.7,7.9c-1.4,2.2-3.1,4-4.8,5.8c-2.1,2.4-4.6,4.4-7.3,6.3c-5,3.5-10.7,3.9-16.3,0.6
		c-2.9-1.7-6.2-3.1-9.3-4.6c-1-0.5-1.9-0.9-2-2.2c-0.1-1.1-0.9-1.9-1.5-2.7c-2.2-3-3.5-6.5-5.6-9.6c-1.7-2.5-4.3-3.8-6.4-5.7
		c-3-2.7-6.8-3.2-10.4-3.9c-6.3-1.2-12.7-2-19,0.2c-1,0.3-2.2,0.3-3.2,0c-4-1.1-7.7-0.1-11.2,1.5c-0.6,0.3-1.3,0.7-1.6,1.4
		c-0.3,0.6-0.7,0.8-1.5,0.6c-2.9-0.8-3.2-1.7-1.4-4.2c2.1-3,4.9-5.2,8.1-7c3.5-1.9,6.5-4.6,10.1-6.3c4.3-2,7.5-5.6,11.3-8.4
		c2.7-2,5-4.6,6.3-7.8c0.7-1.6,1.1-3.4,1-5c-0.2-4.3,0-8.6,0.9-12.8c0.4-1.9-0.5-3.8-0.4-5.7c1.8,2.2,3.4,4.6,5.4,6.7
		c-1.6,1-3.6,1.5-3.3,4.1c0.2,1.8,1.2,2.8,3.1,2.6c1.9-0.2,3.6-1.2,5.4-1.8c2.2-0.8,4.3-1.7,6.4-2.6c2.3-1,4.7-1.8,6.7-3.1
		c1.5-1,3.1-1.4,4.6-2.3c2.8-1.8,6-2.8,9.2-3.8c3.3-1,6.6-2,10.2-2.1c3.1-0.1,6.1-1.1,9-2c4.8,1,9.3,2.8,13.2,5.8l0,0
		c0.1,0.2,0.3,0.3,0.4,0.5c0.1,0.1,0.2,0.2,0.3,0.3c0.2,0.1,0.4,0.3,0.7,0.4c1.1,2.9,3.5,4.7,5.3,7c1.4,1.8,2,3.9,3,5.8
		c1.2,2.3,1.6,5.1,2.3,7.7c0.1,0.7,0.1,1.4,0.2,2C981.5,425.5,981.7,429,981.2,432.4z"/>
	<path class="st0" d="M498.1,141.2c13,0,25.9-0.1,38.9,0c7.5,0.1,15.1,0.1,22.6,0.1c1.5,0,1.7,0.5,1.7,1.8c-0.1,8-0.1,16.1,0,24.1
		c0,1.4-0.4,1.8-1.8,1.7c-25.1-0.1-50.2-0.1-75.3-0.3c-8.1-0.1-16.2,0-24.3-0.1c-3.3,0-3.3,0-3.3-3.4c0-7.2,0-14.5,0-21.7
		c0-2.8-0.4-2.5,2.4-2.5c13,0,26,0,39.1,0C498.1,141.1,498.1,141.2,498.1,141.2z"/>
	<path class="st0" d="M802.3,299.4c-11,0-21.9,0-32.9,0c-1.6,0-2-0.4-2-2c0.1-7.6,0.1-15.2,0-22.8c0-1.3,0.3-1.8,1.7-1.8
		c22,0,44.1,0,66.1,0c1.4,0,1.8,0.4,1.8,1.8c-0.1,7.7-0.1,15.3,0,23c0,1.6-0.6,1.8-1.9,1.8C824.3,299.4,813.3,299.4,802.3,299.4z"/>
	<g>
		<path class="st0" d="M123.4,0c1.7,1.3,3.8,1.8,5.7,2.6c10.2,4.4,20.5,8.7,30.7,13.1c2,0.8,1.9,0.8,0.6,2.5
			c-8.1,9.9-17,18.9-26.5,27.3c-0.7,0.6-1.4,1.2-2.4,2.2c1.2,0,1.9,0,2.6,0c81.5,0,163,0,244.5,0c2.5,0,2.5,0,2.5,2.5
			c0,5.3,0,10.6,0,15.9c0,1.2-0.3,1.7-1.6,1.5c-0.8-0.1-1.6,0-2.4,0c-81.1,0-162.2,0-243.3,0c-2.7,0-2.3-0.4-2.3,2.4
			c0,12.8,0,25.5,0,38.3c0,1.6,0.5,1.9,2,1.9c9.7-0.1,19.4-0.1,29.2,0c1.5,0,1.8-0.4,1.8-1.9c-0.1-8.9,0-17.8-0.1-26.7
			c0-1.4,0.4-1.8,1.8-1.8c10.2,0.1,20.3,0.1,30.5,0c1.4,0,1.9,0.3,1.9,1.8c-0.1,8.9,0,17.8-0.1,26.7c0,1.4,0.3,1.8,1.7,1.8
			c9.8-0.1,19.7-0.1,29.5,0c1.6,0,1.8-0.6,1.8-1.9c0-8.8,0-17.7-0.1-26.5c0-1.4,0.3-1.9,1.8-1.9c10.2,0.1,20.3,0.1,30.5,0
			c1.5,0,1.9,0.4,1.9,1.9c-0.1,8.9,0,17.8-0.1,26.7c0,1.4,0.4,1.8,1.8,1.8c9.8-0.1,19.6-0.1,29.3,0c1.4,0,1.8-0.3,1.8-1.7
			c-0.1-8.9,0-17.8-0.1-26.7c0-1.4,0.3-1.9,1.8-1.9c11.1,0.1,22.2,0.1,33.3,0c1.4,0,1.8,0.4,1.8,1.8c-0.1,8.9,0,17.8-0.1,26.7
			c0,1.5,0.4,1.9,1.8,1.9c22.8,0,45.6,0,68.4-0.1c1.6,0,2.1,0.2,2.1,2c-0.1,5.3-0.1,10.6,0,15.9c0,1.6-0.4,2-2,1.9
			c-22.7-0.1-45.4,0-68-0.1c-1.9,0-2.4,0.4-2.3,2.3c0.1,15.3,0.1,30.6,0,46c0,1.6,0.4,2.1,2,2.1c17.4-0.1,34.8,0,52.1-0.1
			c1.6,0,2.1,0.4,2.1,2c-0.1,5.2-0.1,10.3,0,15.5c0,1.5-0.4,1.9-1.9,1.9c-14.8-0.1-29.7,0-44.5,0c-72.6,0-145.2,0-217.7,0
			c-0.7,0-1.4,0-2.1,0c0.2,0.6,0.7,0.6,1.2,0.7c5.5,1.9,11,3.9,16.6,5.8c1.2,0.4,1.6,0.8,0.9,2.1c-10.3,21-22.5,40.9-37.9,58.6
			c-2.3,2.6-4.5,5.3-6.8,7.9c-1,1-0.7,1.5,0.3,2.2c11.6,8.9,22.2,18.9,31.9,29.8c1,1.1,0.9,1.7-0.2,2.6c-7.7,6.5-15.5,13-23.1,19.5
			c-1.3,1.1-1.7,1-2.4-0.5c-6.1-12.5-12.8-24.7-20.2-36.6c-1.2-1.9-1.2-1.9-2.8-0.4c-14.8,13.5-30.3,26.3-47.7,36.5
			c-1.5,0.9-3.2,2.7-4.7,2.3c-1.3-0.4-2.1-2.6-3-4.1c-1.8-2.6-3.5-5.3-5.3-7.9c-0.6-0.9-0.5-1.3,0.3-1.9c30.3-23.8,52.4-54.1,70-88
			c4.5-8.7,8.6-17.5,12.5-26.5c0.9-2,0.9-2-1.3-2c-21.2,0-42.4,0-63.5,0c-1.6,0-2.2-0.3-2.2-2.1c0.1-5,0.1-10,0-14.9
			c0-1.8,0.3-2.4,2.3-2.4c17.6,0.1,35.1,0,52.7,0.1c1.7,0,2.3-0.3,2.3-2.2c-0.1-15.4-0.1-30.8,0-46.2c0-1.7-0.5-2-2.1-2
			c-22.3,0.1-44.6,0-66.9,0.1c-1.7,0-2.2-0.5-2.1-2.2c0.1-5.1,0.1-10.2,0-15.3c0-1.8,0.3-2.4,2.3-2.4c22.2,0.1,44.4,0,66.5,0.1
			c1.9,0,2.3-0.5,2.3-2.3c-0.1-9.9,0-19.8,0-29.7c0-0.6,0-1.2,0-2.2c-2,1.4-3.8,2.6-5.6,3.8C75.5,89,61.5,97.5,46.5,104.2
			c-1.5,0.7-2.2,0.6-3-0.9c-2-3.7-4.2-7.4-6.3-11c-0.6-0.9-0.5-1.4,0.4-2.1c15.3-10.6,29.2-22.8,42.2-36.2
			C95.9,37.5,110,19.3,122.6,0C122.9,0,123.1,0,123.4,0z M164.2,155.2c0-7.8,0-15.7,0-23.5c0-1.3-0.3-1.7-1.6-1.7
			c-9.8,0.1-19.7,0.1-29.5,0c-1.4,0-1.8,0.3-1.8,1.7c0.1,15.6,0.1,31.1,0,46.7c0,1.4,0.3,1.9,1.8,1.9c9.8-0.1,19.6-0.1,29.3,0
			c1.4,0,1.8-0.4,1.8-1.8C164.2,170.8,164.2,163,164.2,155.2z M198.2,155.1c0,7.8,0,15.7,0,23.5c0,1.3,0.4,1.7,1.7,1.7
			c9.9,0,19.8,0,29.7,0c1.3,0,1.7-0.5,1.6-1.7c0-15.6,0-31.3,0-46.9c0-1.4-0.4-1.8-1.8-1.7c-9.8,0.1-19.7,0.1-29.5,0
			c-1.4,0-1.8,0.4-1.7,1.8C198.2,139.6,198.2,147.3,198.2,155.1z M265.3,155.1c0,7.8,0,15.6,0,23.3c0,1.3,0.2,1.9,1.7,1.9
			c9.8-0.1,19.7-0.1,29.5,0c1.3,0,1.7-0.4,1.7-1.7c0-15.6,0-31.3,0-46.9c0-1.4-0.4-1.8-1.8-1.7c-9.8,0.1-19.6,0.1-29.3,0
			c-1.4,0-1.8,0.4-1.8,1.8C265.3,139.5,265.3,147.3,265.3,155.1z"/>
		<path class="st0" d="M27.4,396.7c4.1-1,7.8-2.6,11.6-4.2c21.6-9.5,42.1-20.9,60.7-35.6c33-26.1,56.5-59.1,70-99c0.3-1,0.7-2,1.1-3
			c0.6-1.3,0.2-1.7-1.2-1.7c-8.7,0.1-17.4,0-26.2,0c-0.6,0-1.1,0-1.7,0c-1.1,0-1.4-0.3-0.8-1.4c3-5.6,6-11.2,8.9-16.8
			c0.5-1,1.2-1.1,2.1-1.1c6.5,0,13.1,0,19.6,0c1.2,0,2-0.3,2.8-1.1c1.8-1.7,3.7-3.2,5.4-4.8c0.8-0.7,1.4-0.7,2.3-0.4
			c10.7,4.1,21.3,8.2,32,12.3c1.1,0.4,1.6,0.8,0.9,2c-0.3,0.5-0.2,1.2-0.4,1.8c-0.9,3-0.9,3,2.3,3c23.4,0,46.7,0,70.1,0
			c1.8,0,2.3-0.5,2.2-2.3c-0.1-11.7,0-23.4-0.1-35.1c0-1.8,0.3-2.4,2.3-2.4c11.3,0.1,22.7,0.1,34,0c1.8,0,2.3,0.4,2.3,2.2
			c-0.1,33.6,0,67.1,0,100.7c0,32.1,0,64.3,0,96.4c0,1.7-0.3,2.2-2.1,2.2c-11.5-0.1-22.9-0.1-34.4,0c-1.6,0-2.1-0.3-2.1-2
			c0.1-19.7,0-39.5,0.1-59.2c0-1.7-0.4-2.2-2.1-2.2c-15.4,0.1-30.9,0.1-46.3,0c-1.5,0-2.2,0.5-2.6,1.9c-2.8,8.4-5.7,16.8-8.5,25.3
			c-0.5,1.4-0.9,1.9-2.6,1.5c-10.4-2.6-20.9-5.2-31.3-7.7c-1.3-0.3-1.6-0.7-1.1-2.1c11.1-27.9,19.1-56.8,25.1-86.2
			c0.7-3.4,0.7-3.3,4-2.6c10.2,2.4,20.3,4.9,30.5,7.2c1.7,0.4,1.9,1,1.6,2.6c-2.9,12.9-6.2,25.7-9.8,38.5c-0.4,1.3-0.5,1.9,1.3,1.9
			c13.3-0.1,26.7-0.1,40,0c1.6,0,1.9-0.5,1.9-2c-0.1-18.5,0-37,0-55.5c0-1.4-0.3-1.9-1.8-1.9c-26.2,0.1-52.5,0.1-78.7,0
			c-1.6,0-2,0.8-2.4,1.9c-7,17.6-15.7,34.4-26.7,49.9c-11.4,16.2-25.6,29.8-40.9,42.3C119,376.4,96.6,388.2,73.2,398
			c-11.3,4.7-22.7,9.3-34.1,13.6c-6,2.3-12.3,3.9-18.9,4.3c-3.7,0.2-7.3-0.1-10.9-1.2c-6.1-2-9.5-7.3-9.3-14.6
			c0.3-11,11.4-20.6,22.4-19.3c3.8,0.5,6.3,2.4,7.5,6c1.2,3.5,0.7,6.6-2,9.3C27.8,396.3,27.6,396.5,27.4,396.7z"/>
		<path class="st0" d="M374.8,325.5c10,0,19.9,0,29.9,0c1.4,0,1.8,0.4,1.7,1.8c-0.1,5.5-0.1,11,0,16.4c0,1.1-0.2,1.5-1.4,1.5
			c-20.1,0-40.2,0-60.3,0c-1.2,0-1.5-0.4-1.5-1.5c0.1-5.5,0.1-11.1,0-16.6c0-1.4,0.5-1.6,1.7-1.6
			C354.8,325.5,364.8,325.5,374.8,325.5z"/>
		<path class="st0" d="M370.8,246.9c8.5,0,17.1,0,25.6,0c1.5,0,1.9,0.4,1.9,1.9c-0.1,5.3-0.1,10.6,0,15.9c0,1.2-0.4,1.6-1.6,1.6
			c-17.4,0-34.7,0-52.1,0c-1.2,0-1.5-0.3-1.5-1.5c0.1-5.4,0.1-10.8,0-16.2c0-1.4,0.5-1.6,1.7-1.6
			C353.5,246.9,362.2,246.9,370.8,246.9z"/>
	</g>
	<path class="st1" d="M911.2,465.9c-2-0.4-3.5-1.6-4.7-3c-1.9-2.2-4.4-2.7-6.9-2c-2.8,0.8-5.2,0.3-7.5-1.2c-0.9-0.6-1.9-1.1-3.1-1.2
		c-1.4-0.2-0.5-1.5-1-2.3c-0.4-0.7,0.5-0.5,0.9-0.7c1.7-0.5,3.2-0.4,4.8,0.5c1.3,0.7,3,0,4.3,1c2.8,2.1,6.4,2.9,9,5.5
		C908.3,463.7,910,464.5,911.2,465.9z"/>
	<path class="st1" d="M869.7,457.8c4.1-2.8,8-1.9,12,0.4c-3.1,0.8-6,1.5-8.7,2.8c-0.3,0.2-0.6,0.4-0.8-0.2
		C871.7,459.6,870.5,458.9,869.7,457.8z"/>
	<path class="st2" d="M970.4,399.5c-0.2-0.1-0.4-0.3-0.7-0.4C970,399.2,970.2,399.4,970.4,399.5z"/>
	<path class="st2" d="M969.4,398.8c-0.1-0.2-0.3-0.3-0.4-0.5C969.4,398.3,969.4,398.5,969.4,398.8z"/>
	<path class="st2" d="M734.6,441.1c-0.1,0.2-0.2,0.3-0.3,0.5C734.4,441.4,734.5,441.2,734.6,441.1z"/>
	<polygon class="st2" points="455.8,500.2 455.6,500.2 455.6,500.1 	"/>
</g>
<g>
	<g>
		<path class="st3" d="M1719.2,191.6c-2.6,3.5-5.1,7-7.8,10.3c-10.7,13.1-23.6,23.6-37.7,32.9c-20.5,13.4-42.9,22.6-66.3,29.6
			c-3.8,1.1-7.6,2.1-11.3,3.2c-1.1,0.3-1.6,0.1-1.9-1c-0.7-2.6-1.4-5.1-2.2-7.7c-0.5-1.5,0.2-1.8,1.4-2.2
			c11.4-3.9,22.5-8.5,33.2-14.1c24.4-12.7,45.8-29.3,63.4-50.5c1.8-2.2,3.5-4.6,5.3-6.9c-0.8-0.6-1.5-0.4-2.2-0.4
			c-27.9-1.8-55.8-3.6-83.7-5.4c-1.8-0.1-2.4-0.5-2.2-2.4c0.4-3.2,0.5-6.4,0.6-9.7c0-1.4,0.6-1.7,1.9-1.6c8.5,0.6,17,1.1,25.5,1.7
			c27.6,1.8,55.3,3.5,82.9,5.4c1.9,0.1,2.5-0.3,2.6-2.2c0.3-7.4,0.9-14.8,1.4-22.2c0.1-2.3,0.1-2.4-2.3-2.3
			c-11.4,0.1-22.8-0.1-34.2-0.4c-16.8-0.4-33.6-1.2-50.4-2.5c-0.6,0-1.3-0.2-1.9-0.3c-3.5-0.6-3.5-0.6-3.9-4.2
			c-0.2-1.9-0.4-3.9-0.6-5.9c-0.1-0.9,0.2-1.2,1.1-1.2c3.3,0,6.6,0,9.9,0c15,0.1,29.9,0,44.9-0.4c14-0.4,28-1.1,42-2.4
			c26.3-2.4,52.3-6.8,77.5-15c3.1-1,6.2-0.8,8.9,1.9c6.6,6.5,13.5,12.7,20.2,19.1c0.3,0.3,0.7,0.5,1.3,1c-5.4,1.4-10.3,2.4-15.2,3.2
			c-17.5,3.1-35.1,4.9-52.9,5.8c-5.3,0.3-10.6,0.6-16,0.7c-1.2,0-1.5,0.5-1.5,1.5c-0.5,8.7-1.1,17.3-1.7,26
			c-0.1,1.1,0.2,1.7,1.4,1.6c0.5,0,1,0.1,1.5,0.1c36,2.3,72,4.7,108,6.9c1.9,0.1,2.5,0.7,2.2,2.6c-0.4,3-0.6,5.9-0.6,8.9
			c0,2.1-0.8,2.3-2.6,2.2c-6.2-0.5-12.4-0.8-18.6-1.2c-26-1.7-52.1-3.4-78.1-5c-0.7,0-1.4-0.1-2.3-0.2c1.1,1.8,2.5,3,3.8,4.4
			c13.2,13.8,27.9,25.9,44.6,35.2c18.5,10.3,38,18.7,58.4,24.6c1.8,0.5,1.7,1,0.9,2.4c-4.5,7.9-8.9,15.8-13.3,23.7
			c-0.7,1.3-1.3,1.5-2.7,1c-20.4-7.3-38.8-18.1-55.6-31.7c-9.1-7.3-17.5-15.2-25.2-23.9c-8.2-9.3-15.4-19.3-21.8-30
			c-0.3-0.5-0.7-1.1-1.3-2.1c-0.1,1.2-0.1,1.8-0.2,2.4c-1.4,21.1-2.7,42.2-4,63.2c-0.1,1.8-0.6,2.2-2.3,2
			c-7.5-0.6-15.1-1.1-22.6-1.5c-1.6-0.1-2-0.5-1.9-2.1c1.4-21,2.7-42,4.1-63C1719.1,192.8,1719.1,192.2,1719.2,191.6z"/>
		<path class="st3" d="M1727.7,266.4c27.8,1.8,55.6,3.6,83.5,5.3c1.8,0.1,2.1,0.6,2,2.3c-2.6,39.5-5.1,79-7.6,118.5
			c-0.1,1.8-0.6,2.3-2.4,2.1c-7.3-0.6-14.6-1-21.9-1.4c-1.5-0.1-1.8-0.5-1.7-1.9c0.4-5.5,0.7-11,1.1-16.5c0.1-1.3-0.1-1.9-1.6-2
			c-38.5-2.4-77.1-4.9-115.6-7.4c-1.4-0.1-1.9,0.2-1.9,1.7c-0.3,5.6-0.7,11.3-1,16.9c-0.1,1.4-0.5,1.8-1.9,1.7
			c-7.5-0.6-15.1-1.1-22.6-1.4c-1.6-0.1-1.8-0.7-1.7-2.1c1.9-28.9,3.7-57.7,5.6-86.6c0.7-10.9,1.4-21.8,2.1-32.7
			c0.1-1.7,0.7-2,2.3-1.9C1672.1,262.8,1699.9,264.6,1727.7,266.4z M1725.1,310.9c19.2,1.2,38.4,2.5,57.6,3.7c1.4,0.1,2-0.1,2.1-1.7
			c0.5-9.2,1.1-18.5,1.8-27.7c0.1-1.3-0.3-1.7-1.6-1.8c-38.6-2.5-77.2-4.9-115.8-7.5c-1.4-0.1-1.7,0.3-1.8,1.6
			c-0.5,9.2-1.1,18.4-1.8,27.5c-0.1,1.6,0.3,2,1.9,2.1C1686.7,308.4,1705.9,309.6,1725.1,310.9z M1724.2,324.6
			c-19.2-1.2-38.4-2.5-57.6-3.7c-1.6-0.1-2,0.3-2.1,1.9c-0.5,9.1-1.1,18.1-1.7,27.1c-0.1,1.5,0.3,1.9,1.8,2
			c38.5,2.4,76.9,4.9,115.4,7.4c1.5,0.1,1.9-0.3,2-1.8c0.5-9.1,1.1-18.1,1.7-27.1c0.1-1.6-0.3-2-1.9-2.1
			C1762.6,327.1,1743.4,325.8,1724.2,324.6z"/>
	</g>
	<g>
		<path class="st4" d="M949.7,301.7c0.9-0.1,1.4-0.8,2-1.3c15.3-12,29.9-24.7,43.3-38.8c20-21.1,36.2-44.7,48.3-71.2
			c2.2-4.9,4.3-9.9,6.1-14.9c0.2-0.5,0.5-1,0.4-1.6c-0.6,0-1.2,0.1-1.8,0.1c-30.8,1.6-61.7,3.1-92.5,4.8c-1.3,0.1-1.8-0.2-1.8-1.6
			c-0.1-3.2-0.2-6.4-0.5-9.6c-0.1-1.4,0.4-1.9,1.7-1.7c0.1,0,0.2,0,0.3,0c65-3.3,130-6.6,195-10c2.3-0.1,1.9-0.3,2.1,1.8
			c0.2,3.1,0.3,6.3,0.5,9.4c0.1,1.2-0.2,1.5-1.5,1.6c-24.3,1.2-48.6,2.5-72.9,3.7c-1.3,0.1-1.8,0.5-2.3,1.7
			c-3.2,8.7-7,17.1-11.4,25.3c-0.5,1-0.7,2-0.7,3.1c2.7,51.7,5.3,103.4,7.9,155c0.1,2.3,0.4,1.9-1.8,2c-6.3,0.3-12.6,0.6-18.8,1
			c-1.4,0.1-1.7-0.3-1.8-1.6c-2.1-41.4-4.2-82.8-6.3-124.1c0-0.6-0.1-1.2-0.1-1.8c-0.7,0.1-0.8,0.6-1.1,1
			c-16.6,21.3-35.9,39.7-57.6,55.7c-9.4,6.9-19.1,13.3-29.1,19.2c-0.8,0.5-1.2,0.5-1.6-0.4c-1-1.9-2.2-3.7-3.3-5.5
			c-0.2-0.3-0.2-0.7-0.6-0.7C949.7,302.1,949.7,301.9,949.7,301.7z"/>
		<path class="st5" d="M1523.4,217.4c1.3,26.1,2.7,52.2,4,78.2c0.1,1.8,0.2,3.5,0.6,5.3c1.1,4.5,3.3,6.8,7.8,7.3
			c5.4,0.6,10.8,0.6,16.1-0.8c4.8-1.2,7.6-4.2,8.5-9c0.9-4.8,0.9-9.5,0.8-14.4c-0.2-9.5-1-18.9-1.5-28.4c-0.1-1,0.1-1.4,1.2-1.4
			c2.1,0,4.1-0.1,6.2-0.3c0.8-0.1,1.1,0.2,1.4,0.9c4.3,13.6,8.4,27.2,10.4,41.4c0.7,4.8,0.8,9.5,0.3,14.4
			c-0.8,8.3-5.5,13.2-13.2,15.6c-3.7,1.2-7.6,1.5-11.4,2c-8.6,1.1-17.2,1.4-25.9,1.1c-4.2-0.2-8.2-0.9-11.9-2.8
			c-5.2-2.6-7.6-7.3-9.2-12.6c-1-3.5-1.5-7.1-1.7-10.7c-2.6-51.3-5.3-102.7-7.8-154c-0.1-1.5-0.4-1.9-2-1.8
			c-21.4,1.2-42.9,2.2-64.3,3.3c-1.3,0.1-1.6,0.3-1.5,1.7c1,18.1,1.9,36.3,2.8,54.4c0.8,15.8,1.1,31.6,0.6,47.4
			c-0.4,12.9-2.1,25.6-6.1,37.9c-5.3,16.3-15.1,29.5-28.7,39.8c-6.8,5.1-14.1,9.5-21.6,13.4c-0.9,0.5-1.3,0.3-1.9-0.5
			c-1-1.6-2-3.1-3.2-4.6c-0.7-0.9-0.6-1.4,0.3-2.1c6-4.6,11.7-9.7,16.8-15.4c10.9-11.9,17.5-25.9,20.3-41.7
			c1.9-10.9,2.6-22,2.6-33.1c0-10-0.2-19.9-0.6-29.9c-1.1-25.6-2.5-51.2-3.8-76.8c-0.1-1.1,0.2-1.5,1.4-1.5
			c36.2-1.8,72.5-3.7,108.7-5.6c1.2-0.1,1.5,0.3,1.6,1.5C1520.6,163,1522,190.2,1523.4,217.4z"/>
		<path class="st4" d="M1180.5,253c-1.7-33-3.4-66-5.1-99c-0.1-1.5,0.4-1.8,1.8-1.9c57.3-2.9,114.7-5.8,172-8.8
			c1.9-0.1,1.9-0.1,2,1.8c3,58.3,6,116.7,8.9,175c0.2,4.3-0.1,8.6-2,12.6c-3,6.2-8.1,9.7-14.6,11.3c-8.2,2-16.4,1-24.4-1.2
			c-8.1-2.2-15.7-5.7-23.2-9.5c-0.7-0.4-0.9-0.7-0.6-1.5c0.7-2.1,1.3-4.2,1.8-6.3c0.2-1,0.8-1.1,1.6-0.9c6.5,1.2,13.1,2.1,19.7,2.6
			c3.7,0.3,7.4,0.5,11-0.3c5.2-1.1,7.5-3.8,8-9.1c0.2-1.5,0.2-2.9,0.1-4.4c-2.7-52.2-5.3-104.4-8-156.6c-0.1-1.4-0.4-1.8-1.8-1.7
			c-42.7,2.2-85.4,4.4-128.1,6.5c-1.5,0.1-1.8,0.4-1.8,1.9c3.2,62.4,6.4,124.8,9.6,187.2c0.1,2.1,0.4,1.9-1.8,2
			c-6.1,0.3-12.2,0.6-18.3,1c-1.4,0.1-1.8-0.2-1.9-1.6C1183.8,319.1,1182.1,286.1,1180.5,253z"/>
		<path class="st4" d="M1266,221.8c13.9-0.7,27.8-1.4,41.7-2.2c1.3-0.1,1.6,0.2,1.7,1.5c1.3,25.4,2.6,50.9,3.9,76.3
			c0.1,1.2-0.1,1.6-1.4,1.6c-5.9,0.2-11.9,0.5-17.8,0.9c-1,0.1-1.3-0.2-1.4-1.2c-0.2-4.1-0.4-8.2-0.6-12.4c0-1-0.4-1.2-1.3-1.1
			c-14.3,0.8-28.7,1.5-43,2.2c-1.1,0.1-1.2,0.5-1.2,1.4c0.3,5.2,0.5,10.5,0.8,15.7c0.1,1-0.2,1.3-1.2,1.4
			c-6.1,0.3-12.2,0.6-18.3,0.9c-0.9,0.1-1.3-0.1-1.3-1.1c-1.3-26.9-2.7-53.7-4.1-80.6c-0.1-1.2,0.5-1.2,1.3-1.3
			C1237.9,223.3,1251.9,222.6,1266,221.8z M1266.5,232.5c-7.1,0.4-14.2,0.8-21.3,1.1c-1.1,0-1.4,0.3-1.3,1.4
			c0.7,13.5,1.4,27,2.1,40.6c0.1,1.2,0.4,1.3,1.5,1.3c14.2-0.8,28.5-1.5,42.7-2.2c1.1-0.1,1.4-0.3,1.3-1.4
			c-0.7-13.5-1.4-27-2.1-40.6c-0.1-1.1-0.4-1.3-1.5-1.3C1280.7,231.8,1273.6,232.1,1266.5,232.5z"/>
		<path class="st5" d="M1077.8,213.5c0.4,0.2,0.7,0.3,0.9,0.5c13.4,7.6,26.4,16,38.7,25.2c11.6,8.6,22.7,17.7,33.2,27.5
			c3.6,3.4,7.1,6.9,10.5,10.6c0.7,0.8,0.6,1.1-0.1,1.8c-6.1,5.9-12.2,11.8-18.3,17.7c-0.8,0.8-1.1,0.4-1.6-0.3
			c-8.5-11.3-17.6-22.1-26.8-32.8c-11.2-12.9-23-25.3-35.5-37c-1.9-1.8-3.9-3.6-5.8-5.4c-0.7-0.6-0.7-1-0.1-1.7
			c1.4-1.7,2.8-3.6,4.2-5.3C1077.4,214,1077.6,213.7,1077.8,213.5z"/>
		<path class="st5" d="M1494.6,247.7c-0.1,0.6-0.6,0.6-1,0.8c-6.3,3.2-12.7,6.4-19,9.6c-1.1,0.6-2.3,1.1-3.4,1.7
			c-0.9,0.5-1.1,0.2-1.4-0.6c-5.2-17.4-11.7-34.2-19.1-50.8c-2.7-6-5.5-12-8.5-17.9c-0.6-1.2-0.4-1.8,0.6-2.4
			c1.6-1.1,3.2-2.3,4.7-3.5c0.8-0.6,1.2-0.5,1.9,0.2c9.5,9.8,18.3,20.2,26.2,31.3c6.9,9.8,13.2,19.9,18.5,30.7
			C1494.3,247.1,1494.5,247.4,1494.6,247.7z"/>
		<path class="st6" d="M1266.1,194.4c-18.2,0.9-36.4,1.8-54.6,2.8c-1.4,0.1-1.7-0.3-1.8-1.6c0-2.6-0.2-5.2-0.4-7.8
			c-0.1-1.1,0.3-1.3,1.3-1.4c5.4-0.2,10.9-0.5,16.3-0.8c31-1.6,62-3.2,93-4.8c2.1-0.1,1.8-0.4,1.9,1.8c0.1,2.4,0.2,4.9,0.4,7.3
			c0.1,1.2-0.3,1.5-1.5,1.6C1302.6,192.5,1284.3,193.4,1266.1,194.4z"/>
	</g>
</g>
</svg>
